<svg width="722" height="623" viewBox="0 0 722 623" fill="none" xmlns="http://www.w3.org/2000/svg">
  <circle cx="365" cy="299" r="32" fill="#D9D9D9" />
  <circle cx="141" cy="75" r="32" fill="#D9D9D9" />
  <circle cx="141" cy="75" r="32" fill="#D9D9D9" />
  <circle cx="589" cy="75" r="32" fill="#D9D9D9" />
  <circle cx="141" cy="523" r="28" stroke="#D9D9D9" stroke-width="8" />
  <circle cx="589" cy="523" r="28" stroke="#D9D9D9" stroke-width="8" />
  <rect x="133" y="77" width="16" height="422" fill="#D9D9D9" />
  <rect
    x="141.052"
    y="86.7849"
    width="16"
    height="305.758"
    transform="rotate(-45 141.052 86.7849)"
    fill="#D9D9D9"
  />
  <rect
    width="16"
    height="305.758"
    transform="matrix(-0.707107 -0.707107 -0.707107 0.707107 588.989 86.8374)"
    fill="#D9D9D9"
  />
  <rect x="581" y="75" width="16" height="424" fill="#D9D9D9" />
  <path
    d="M11.2074 579.344C11.1278 578.599 10.7926 578.02 10.2017 577.605C9.61648 577.19 8.85511 576.983 7.91761 576.983C7.25852 576.983 6.69318 577.082 6.22159 577.281C5.75 577.48 5.3892 577.75 5.1392 578.091C4.8892 578.432 4.76136 578.821 4.75568 579.259C4.75568 579.622 4.83807 579.937 5.00284 580.205C5.1733 580.472 5.40341 580.699 5.69318 580.886C5.98295 581.068 6.30398 581.222 6.65625 581.347C7.00852 581.472 7.36364 581.577 7.72159 581.662L9.35795 582.071C10.017 582.224 10.6506 582.432 11.2585 582.693C11.8722 582.955 12.4205 583.284 12.9034 583.682C13.392 584.08 13.7784 584.56 14.0625 585.122C14.3466 585.685 14.4886 586.344 14.4886 587.099C14.4886 588.122 14.2273 589.023 13.7045 589.801C13.1818 590.574 12.4261 591.179 11.4375 591.616C10.4545 592.048 9.2642 592.264 7.86648 592.264C6.50852 592.264 5.32955 592.054 4.32955 591.634C3.33523 591.213 2.55682 590.599 1.99432 589.793C1.4375 588.986 1.13636 588.003 1.09091 586.844H4.2017C4.24716 587.452 4.43466 587.957 4.7642 588.361C5.09375 588.764 5.52273 589.065 6.05114 589.264C6.58523 589.463 7.18182 589.562 7.84091 589.562C8.52841 589.562 9.13068 589.46 9.64773 589.256C10.1705 589.045 10.5795 588.756 10.875 588.386C11.1705 588.011 11.321 587.574 11.3267 587.074C11.321 586.619 11.1875 586.244 10.9261 585.949C10.6648 585.648 10.2983 585.398 9.8267 585.199C9.3608 584.994 8.81534 584.812 8.19034 584.653L6.20455 584.142C4.76705 583.773 3.63068 583.213 2.79545 582.463C1.96591 581.707 1.55114 580.705 1.55114 579.455C1.55114 578.426 1.82955 577.526 2.38636 576.753C2.94886 575.98 3.71307 575.381 4.67898 574.955C5.64489 574.523 6.73864 574.307 7.96023 574.307C9.19886 574.307 10.2841 574.523 11.2159 574.955C12.1534 575.381 12.8892 575.974 13.4233 576.736C13.9574 577.491 14.233 578.361 14.25 579.344H11.2074ZM17.1712 592V578.909H20.2564V592H17.1712ZM18.7223 577.051C18.2337 577.051 17.8132 576.889 17.4609 576.565C17.1087 576.236 16.9325 575.841 16.9325 575.381C16.9325 574.915 17.1087 574.52 17.4609 574.196C17.8132 573.866 18.2337 573.702 18.7223 573.702C19.2166 573.702 19.6371 573.866 19.9837 574.196C20.3359 574.52 20.5121 574.915 20.5121 575.381C20.5121 575.841 20.3359 576.236 19.9837 576.565C19.6371 576.889 19.2166 577.051 18.7223 577.051ZM26.5142 584.33V592H23.429V578.909H26.3778V581.134H26.5312C26.8324 580.401 27.3125 579.818 27.9716 579.386C28.6364 578.955 29.4574 578.739 30.4347 578.739C31.3381 578.739 32.125 578.932 32.7955 579.318C33.4716 579.705 33.9943 580.264 34.3636 580.997C34.7386 581.73 34.9233 582.619 34.9176 583.665V592H31.8324V584.142C31.8324 583.267 31.6051 582.582 31.1506 582.088C30.7017 581.594 30.0795 581.347 29.2841 581.347C28.7443 581.347 28.2642 581.466 27.8438 581.705C27.429 581.937 27.1023 582.276 26.8636 582.719C26.6307 583.162 26.5142 583.699 26.5142 584.33ZM43.7472 597.182C42.6392 597.182 41.6875 597.031 40.892 596.73C40.0966 596.435 39.4574 596.037 38.9744 595.537C38.4915 595.037 38.1562 594.483 37.9688 593.875L40.7472 593.202C40.8722 593.457 41.054 593.71 41.2926 593.96C41.5313 594.216 41.8523 594.426 42.2557 594.591C42.6648 594.761 43.179 594.847 43.7983 594.847C44.6733 594.847 45.3977 594.634 45.9716 594.207C46.5455 593.787 46.8324 593.094 46.8324 592.128V589.648H46.679C46.5199 589.966 46.2869 590.293 45.9801 590.628C45.679 590.963 45.2784 591.244 44.7784 591.472C44.2841 591.699 43.6619 591.812 42.9119 591.812C41.9062 591.812 40.9943 591.577 40.1761 591.105C39.3636 590.628 38.7159 589.918 38.233 588.974C37.7557 588.026 37.517 586.838 37.517 585.412C37.517 583.974 37.7557 582.761 38.233 581.773C38.7159 580.778 39.3665 580.026 40.1847 579.514C41.0028 578.997 41.9148 578.739 42.9205 578.739C43.6875 578.739 44.3182 578.869 44.8125 579.131C45.3125 579.386 45.7102 579.696 46.0057 580.06C46.3011 580.418 46.5256 580.756 46.679 581.074H46.8494V578.909H49.892V592.213C49.892 593.332 49.625 594.259 49.0909 594.991C48.5568 595.724 47.8267 596.273 46.9006 596.636C45.9744 597 44.9233 597.182 43.7472 597.182ZM43.7727 589.392C44.4261 589.392 44.983 589.233 45.4432 588.915C45.9034 588.597 46.2528 588.139 46.4915 587.543C46.7301 586.946 46.8494 586.23 46.8494 585.395C46.8494 584.571 46.7301 583.849 46.4915 583.23C46.2585 582.611 45.9119 582.131 45.4517 581.79C44.9972 581.443 44.4375 581.27 43.7727 581.27C43.0852 581.27 42.5114 581.449 42.0511 581.807C41.5909 582.165 41.2443 582.656 41.0114 583.281C40.7784 583.901 40.6619 584.605 40.6619 585.395C40.6619 586.196 40.7784 586.898 41.0114 587.5C41.25 588.097 41.5994 588.562 42.0597 588.898C42.5256 589.227 43.0966 589.392 43.7727 589.392ZM56.1392 574.545V592H53.054V574.545H56.1392ZM65.1072 592.256C63.7947 592.256 62.6612 591.983 61.7067 591.438C60.7578 590.886 60.0277 590.108 59.5163 589.102C59.005 588.091 58.7493 586.901 58.7493 585.531C58.7493 584.185 59.005 583.003 59.5163 581.986C60.0334 580.963 60.755 580.168 61.6811 579.599C62.6072 579.026 63.6953 578.739 64.9453 578.739C65.7521 578.739 66.5135 578.869 67.2294 579.131C67.951 579.386 68.5874 579.784 69.1385 580.324C69.6953 580.864 70.1328 581.551 70.451 582.386C70.7692 583.216 70.9283 584.205 70.9283 585.352V586.298H60.1982V584.219H67.9709C67.9652 583.628 67.8374 583.102 67.5874 582.642C67.3374 582.176 66.9879 581.81 66.5391 581.543C66.0959 581.276 65.5788 581.142 64.9879 581.142C64.3572 581.142 63.8033 581.295 63.326 581.602C62.8487 581.903 62.4766 582.301 62.2095 582.795C61.9482 583.284 61.8146 583.821 61.8089 584.406V586.222C61.8089 586.983 61.9482 587.636 62.2266 588.182C62.505 588.722 62.8942 589.136 63.3942 589.426C63.8942 589.71 64.4794 589.852 65.1499 589.852C65.5987 589.852 66.005 589.79 66.3686 589.665C66.7322 589.534 67.0476 589.344 67.3146 589.094C67.5817 588.844 67.7834 588.534 67.9197 588.165L70.8004 588.489C70.6186 589.25 70.272 589.915 69.7607 590.483C69.255 591.045 68.6072 591.483 67.8175 591.795C67.0277 592.102 66.1243 592.256 65.1072 592.256ZM79.6278 592V574.545H86.1733C87.5142 574.545 88.6392 574.795 89.5483 575.295C90.4631 575.795 91.1534 576.483 91.6193 577.358C92.0909 578.227 92.3267 579.216 92.3267 580.324C92.3267 581.443 92.0909 582.437 91.6193 583.307C91.1477 584.176 90.4517 584.861 89.5312 585.361C88.6108 585.855 87.4773 586.102 86.1307 586.102H81.7926V583.503H85.7045C86.4886 583.503 87.1307 583.366 87.6307 583.094C88.1307 582.821 88.5 582.446 88.7386 581.969C88.983 581.491 89.1051 580.943 89.1051 580.324C89.1051 579.705 88.983 579.159 88.7386 578.688C88.5 578.216 88.1278 577.849 87.6222 577.588C87.1222 577.321 86.4773 577.188 85.6875 577.188H82.7898V592H79.6278ZM98.4695 592.264C97.6399 592.264 96.8928 592.116 96.228 591.821C95.5689 591.52 95.0462 591.077 94.6598 590.491C94.2791 589.906 94.0888 589.185 94.0888 588.327C94.0888 587.588 94.2251 586.977 94.4979 586.494C94.7706 586.011 95.1428 585.625 95.6143 585.335C96.0859 585.045 96.6172 584.827 97.2081 584.679C97.8047 584.526 98.4212 584.415 99.0575 584.347C99.8246 584.267 100.447 584.196 100.924 584.134C101.401 584.065 101.748 583.963 101.964 583.827C102.185 583.685 102.296 583.466 102.296 583.17V583.119C102.296 582.477 102.106 581.98 101.725 581.628C101.344 581.276 100.796 581.099 100.08 581.099C99.3246 581.099 98.7251 581.264 98.282 581.594C97.8445 581.923 97.549 582.312 97.3956 582.761L94.5149 582.352C94.7422 581.557 95.1172 580.892 95.6399 580.358C96.1626 579.818 96.8018 579.415 97.5575 579.148C98.3132 578.875 99.1484 578.739 100.063 578.739C100.694 578.739 101.322 578.812 101.947 578.96C102.572 579.108 103.143 579.352 103.66 579.693C104.177 580.028 104.592 580.486 104.904 581.065C105.222 581.645 105.381 582.369 105.381 583.239V592H102.415V590.202H102.313C102.126 590.565 101.862 590.906 101.521 591.224C101.185 591.537 100.762 591.79 100.251 591.983C99.745 592.17 99.1513 592.264 98.4695 592.264ZM99.2706 589.997C99.8899 589.997 100.427 589.875 100.881 589.631C101.336 589.381 101.685 589.051 101.93 588.642C102.18 588.233 102.305 587.787 102.305 587.304V585.761C102.208 585.841 102.043 585.915 101.81 585.983C101.583 586.051 101.327 586.111 101.043 586.162C100.759 586.213 100.478 586.259 100.2 586.298C99.9212 586.338 99.6797 586.372 99.4751 586.401C99.0149 586.463 98.603 586.565 98.2393 586.707C97.8757 586.849 97.5888 587.048 97.3786 587.304C97.1683 587.554 97.0632 587.878 97.0632 588.276C97.0632 588.844 97.2706 589.273 97.6854 589.562C98.1001 589.852 98.6286 589.997 99.2706 589.997ZM114.177 597.182C113.069 597.182 112.117 597.031 111.322 596.73C110.526 596.435 109.887 596.037 109.404 595.537C108.921 595.037 108.586 594.483 108.398 593.875L111.177 593.202C111.302 593.457 111.484 593.71 111.722 593.96C111.961 594.216 112.282 594.426 112.685 594.591C113.094 594.761 113.609 594.847 114.228 594.847C115.103 594.847 115.827 594.634 116.401 594.207C116.975 593.787 117.262 593.094 117.262 592.128V589.648H117.109C116.95 589.966 116.717 590.293 116.41 590.628C116.109 590.963 115.708 591.244 115.208 591.472C114.714 591.699 114.092 591.812 113.342 591.812C112.336 591.812 111.424 591.577 110.606 591.105C109.793 590.628 109.146 589.918 108.663 588.974C108.185 588.026 107.947 586.838 107.947 585.412C107.947 583.974 108.185 582.761 108.663 581.773C109.146 580.778 109.796 580.026 110.614 579.514C111.433 578.997 112.344 578.739 113.35 578.739C114.117 578.739 114.748 578.869 115.242 579.131C115.742 579.386 116.14 579.696 116.435 580.06C116.731 580.418 116.955 580.756 117.109 581.074H117.279V578.909H120.322V592.213C120.322 593.332 120.055 594.259 119.521 594.991C118.987 595.724 118.256 596.273 117.33 596.636C116.404 597 115.353 597.182 114.177 597.182ZM114.202 589.392C114.856 589.392 115.413 589.233 115.873 588.915C116.333 588.597 116.683 588.139 116.921 587.543C117.16 586.946 117.279 586.23 117.279 585.395C117.279 584.571 117.16 583.849 116.921 583.23C116.688 582.611 116.342 582.131 115.881 581.79C115.427 581.443 114.867 581.27 114.202 581.27C113.515 581.27 112.941 581.449 112.481 581.807C112.021 582.165 111.674 582.656 111.441 583.281C111.208 583.901 111.092 584.605 111.092 585.395C111.092 586.196 111.208 586.898 111.441 587.5C111.68 588.097 112.029 588.562 112.489 588.898C112.955 589.227 113.526 589.392 114.202 589.392ZM129.279 592.256C127.967 592.256 126.833 591.983 125.879 591.438C124.93 590.886 124.2 590.108 123.688 589.102C123.177 588.091 122.921 586.901 122.921 585.531C122.921 584.185 123.177 583.003 123.688 581.986C124.205 580.963 124.927 580.168 125.853 579.599C126.779 579.026 127.867 578.739 129.117 578.739C129.924 578.739 130.685 578.869 131.401 579.131C132.123 579.386 132.759 579.784 133.31 580.324C133.867 580.864 134.305 581.551 134.623 582.386C134.941 583.216 135.1 584.205 135.1 585.352V586.298H124.37V584.219H132.143C132.137 583.628 132.009 583.102 131.759 582.642C131.509 582.176 131.16 581.81 130.711 581.543C130.268 581.276 129.751 581.142 129.16 581.142C128.529 581.142 127.975 581.295 127.498 581.602C127.021 581.903 126.648 582.301 126.381 582.795C126.12 583.284 125.987 583.821 125.981 584.406V586.222C125.981 586.983 126.12 587.636 126.398 588.182C126.677 588.722 127.066 589.136 127.566 589.426C128.066 589.71 128.651 589.852 129.322 589.852C129.771 589.852 130.177 589.79 130.54 589.665C130.904 589.534 131.219 589.344 131.487 589.094C131.754 588.844 131.955 588.534 132.092 588.165L134.972 588.489C134.79 589.25 134.444 589.915 133.933 590.483C133.427 591.045 132.779 591.483 131.989 591.795C131.2 592.102 130.296 592.256 129.279 592.256ZM146.041 592H142.666L148.811 574.545H152.714L158.868 592H155.493L150.831 578.125H150.695L146.041 592ZM146.152 585.156H155.357V587.696H146.152V585.156ZM161.031 596.909V578.909H164.065V581.074H164.244C164.403 580.756 164.627 580.418 164.917 580.06C165.207 579.696 165.599 579.386 166.093 579.131C166.587 578.869 167.218 578.739 167.985 578.739C168.996 578.739 169.908 578.997 170.721 579.514C171.539 580.026 172.187 580.784 172.664 581.79C173.147 582.79 173.388 584.017 173.388 585.472C173.388 586.909 173.153 588.131 172.681 589.136C172.21 590.142 171.567 590.909 170.755 591.438C169.942 591.966 169.022 592.23 167.994 592.23C167.244 592.23 166.621 592.105 166.127 591.855C165.633 591.605 165.235 591.304 164.934 590.952C164.638 590.594 164.408 590.256 164.244 589.938H164.116V596.909H161.031ZM164.056 585.455C164.056 586.301 164.175 587.043 164.414 587.679C164.658 588.315 165.008 588.812 165.462 589.17C165.923 589.523 166.479 589.699 167.133 589.699C167.815 589.699 168.386 589.517 168.846 589.153C169.306 588.784 169.653 588.281 169.886 587.645C170.124 587.003 170.244 586.273 170.244 585.455C170.244 584.642 170.127 583.92 169.894 583.29C169.661 582.659 169.315 582.165 168.854 581.807C168.394 581.449 167.82 581.27 167.133 581.27C166.474 581.27 165.914 581.443 165.454 581.79C164.994 582.136 164.644 582.622 164.406 583.247C164.173 583.872 164.056 584.608 164.056 585.455ZM176.031 596.909V578.909H179.065V581.074H179.244C179.403 580.756 179.627 580.418 179.917 580.06C180.207 579.696 180.599 579.386 181.093 579.131C181.587 578.869 182.218 578.739 182.985 578.739C183.996 578.739 184.908 578.997 185.721 579.514C186.539 580.026 187.187 580.784 187.664 581.79C188.147 582.79 188.388 584.017 188.388 585.472C188.388 586.909 188.153 588.131 187.681 589.136C187.21 590.142 186.567 590.909 185.755 591.438C184.942 591.966 184.022 592.23 182.994 592.23C182.244 592.23 181.621 592.105 181.127 591.855C180.633 591.605 180.235 591.304 179.934 590.952C179.638 590.594 179.408 590.256 179.244 589.938H179.116V596.909H176.031ZM179.056 585.455C179.056 586.301 179.175 587.043 179.414 587.679C179.658 588.315 180.008 588.812 180.462 589.17C180.923 589.523 181.479 589.699 182.133 589.699C182.815 589.699 183.386 589.517 183.846 589.153C184.306 588.784 184.653 588.281 184.886 587.645C185.124 587.003 185.244 586.273 185.244 585.455C185.244 584.642 185.127 583.92 184.894 583.29C184.661 582.659 184.315 582.165 183.854 581.807C183.394 581.449 182.82 581.27 182.133 581.27C181.474 581.27 180.914 581.443 180.454 581.79C179.994 582.136 179.644 582.622 179.406 583.247C179.173 583.872 179.056 584.608 179.056 585.455ZM194.116 574.545V592H191.031V574.545H194.116ZM197.288 592V578.909H200.374V592H197.288ZM198.839 577.051C198.351 577.051 197.93 576.889 197.578 576.565C197.226 576.236 197.05 575.841 197.05 575.381C197.05 574.915 197.226 574.52 197.578 574.196C197.93 573.866 198.351 573.702 198.839 573.702C199.334 573.702 199.754 573.866 200.101 574.196C200.453 574.52 200.629 574.915 200.629 575.381C200.629 575.841 200.453 576.236 200.101 576.565C199.754 576.889 199.334 577.051 198.839 577.051ZM209.256 592.256C207.95 592.256 206.827 591.969 205.89 591.395C204.958 590.821 204.239 590.028 203.734 589.017C203.234 588 202.984 586.83 202.984 585.506C202.984 584.176 203.239 583.003 203.751 581.986C204.262 580.963 204.984 580.168 205.915 579.599C206.853 579.026 207.961 578.739 209.239 578.739C210.302 578.739 211.242 578.935 212.06 579.327C212.884 579.713 213.54 580.261 214.029 580.972C214.518 581.676 214.796 582.5 214.864 583.443H211.915C211.796 582.812 211.512 582.287 211.063 581.866C210.62 581.44 210.026 581.227 209.282 581.227C208.651 581.227 208.097 581.398 207.62 581.739C207.143 582.074 206.771 582.557 206.504 583.188C206.242 583.818 206.112 584.574 206.112 585.455C206.112 586.347 206.242 587.114 206.504 587.756C206.765 588.392 207.131 588.884 207.603 589.23C208.08 589.571 208.64 589.741 209.282 589.741C209.737 589.741 210.143 589.656 210.501 589.486C210.864 589.31 211.168 589.057 211.413 588.727C211.657 588.398 211.825 587.997 211.915 587.526H214.864C214.79 588.452 214.518 589.273 214.046 589.989C213.575 590.699 212.933 591.256 212.12 591.659C211.308 592.057 210.353 592.256 209.256 592.256ZM221.165 592.264C220.335 592.264 219.588 592.116 218.923 591.821C218.264 591.52 217.741 591.077 217.355 590.491C216.974 589.906 216.784 589.185 216.784 588.327C216.784 587.588 216.92 586.977 217.193 586.494C217.466 586.011 217.838 585.625 218.31 585.335C218.781 585.045 219.313 584.827 219.903 584.679C220.5 584.526 221.116 584.415 221.753 584.347C222.52 584.267 223.142 584.196 223.619 584.134C224.097 584.065 224.443 583.963 224.659 583.827C224.881 583.685 224.991 583.466 224.991 583.17V583.119C224.991 582.477 224.801 581.98 224.42 581.628C224.04 581.276 223.491 581.099 222.776 581.099C222.02 581.099 221.42 581.264 220.977 581.594C220.54 581.923 220.244 582.312 220.091 582.761L217.21 582.352C217.438 581.557 217.813 580.892 218.335 580.358C218.858 579.818 219.497 579.415 220.253 579.148C221.009 578.875 221.844 578.739 222.759 578.739C223.389 578.739 224.017 578.812 224.642 578.96C225.267 579.108 225.838 579.352 226.355 579.693C226.872 580.028 227.287 580.486 227.599 581.065C227.918 581.645 228.077 582.369 228.077 583.239V592H225.111V590.202H225.009C224.821 590.565 224.557 590.906 224.216 591.224C223.881 591.537 223.457 591.79 222.946 591.983C222.44 592.17 221.847 592.264 221.165 592.264ZM221.966 589.997C222.585 589.997 223.122 589.875 223.577 589.631C224.031 589.381 224.381 589.051 224.625 588.642C224.875 588.233 225 587.787 225 587.304V585.761C224.903 585.841 224.739 585.915 224.506 585.983C224.278 586.051 224.023 586.111 223.739 586.162C223.455 586.213 223.173 586.259 222.895 586.298C222.616 586.338 222.375 586.372 222.17 586.401C221.71 586.463 221.298 586.565 220.935 586.707C220.571 586.849 220.284 587.048 220.074 587.304C219.864 587.554 219.759 587.878 219.759 588.276C219.759 588.844 219.966 589.273 220.381 589.562C220.795 589.852 221.324 589.997 221.966 589.997ZM237.716 578.909V581.295H230.19V578.909H237.716ZM232.048 575.773H235.134V588.062C235.134 588.477 235.196 588.795 235.321 589.017C235.452 589.233 235.622 589.381 235.832 589.46C236.043 589.54 236.276 589.58 236.531 589.58C236.724 589.58 236.901 589.565 237.06 589.537C237.224 589.509 237.349 589.483 237.435 589.46L237.955 591.872C237.79 591.929 237.554 591.991 237.247 592.06C236.946 592.128 236.577 592.168 236.139 592.179C235.366 592.202 234.67 592.085 234.051 591.83C233.432 591.568 232.94 591.165 232.577 590.619C232.219 590.074 232.043 589.392 232.048 588.574V575.773ZM240.296 592V578.909H243.381V592H240.296ZM241.847 577.051C241.359 577.051 240.938 576.889 240.586 576.565C240.234 576.236 240.058 575.841 240.058 575.381C240.058 574.915 240.234 574.52 240.586 574.196C240.938 573.866 241.359 573.702 241.847 573.702C242.342 573.702 242.762 573.866 243.109 574.196C243.461 574.52 243.637 574.915 243.637 575.381C243.637 575.841 243.461 576.236 243.109 576.565C242.762 576.889 242.342 577.051 241.847 577.051ZM252.264 592.256C250.986 592.256 249.878 591.974 248.94 591.412C248.003 590.849 247.276 590.062 246.759 589.051C246.247 588.04 245.991 586.858 245.991 585.506C245.991 584.153 246.247 582.969 246.759 581.952C247.276 580.935 248.003 580.145 248.94 579.582C249.878 579.02 250.986 578.739 252.264 578.739C253.543 578.739 254.651 579.02 255.588 579.582C256.526 580.145 257.25 580.935 257.761 581.952C258.278 582.969 258.537 584.153 258.537 585.506C258.537 586.858 258.278 588.04 257.761 589.051C257.25 590.062 256.526 590.849 255.588 591.412C254.651 591.974 253.543 592.256 252.264 592.256ZM252.281 589.784C252.974 589.784 253.554 589.594 254.02 589.213C254.486 588.827 254.832 588.31 255.06 587.662C255.293 587.014 255.409 586.293 255.409 585.497C255.409 584.696 255.293 583.972 255.06 583.324C254.832 582.67 254.486 582.151 254.02 581.764C253.554 581.378 252.974 581.185 252.281 581.185C251.571 581.185 250.98 581.378 250.509 581.764C250.043 582.151 249.693 582.67 249.46 583.324C249.233 583.972 249.119 584.696 249.119 585.497C249.119 586.293 249.233 587.014 249.46 587.662C249.693 588.31 250.043 588.827 250.509 589.213C250.98 589.594 251.571 589.784 252.281 589.784ZM264.241 584.33V592H261.156V578.909H264.104V581.134H264.258C264.559 580.401 265.039 579.818 265.698 579.386C266.363 578.955 267.184 578.739 268.161 578.739C269.065 578.739 269.852 578.932 270.522 579.318C271.198 579.705 271.721 580.264 272.09 580.997C272.465 581.73 272.65 582.619 272.644 583.665V592H269.559V584.142C269.559 583.267 269.332 582.582 268.877 582.088C268.428 581.594 267.806 581.347 267.011 581.347C266.471 581.347 265.991 581.466 265.57 581.705C265.156 581.937 264.829 582.276 264.59 582.719C264.357 583.162 264.241 583.699 264.241 584.33Z"
    fill="#5F85E7"
  />
  <path
    d="M7.95455 8.19602V5.54545H21.8807V8.19602H16.4858V23H13.3494V8.19602H7.95455ZM24.8466 27.9091C24.4261 27.9091 24.0369 27.875 23.679 27.8068C23.3267 27.7443 23.0455 27.6705 22.8352 27.5852L23.5511 25.1818C24 25.3125 24.4006 25.375 24.7528 25.3693C25.1051 25.3636 25.4148 25.2528 25.6818 25.0369C25.9545 24.8267 26.1847 24.4744 26.3722 23.9801L26.6364 23.2727L21.8892 9.90909H25.1619L28.179 19.7955H28.3153L31.3409 9.90909H34.6222L29.3807 24.5852C29.1364 25.2784 28.8125 25.8722 28.4091 26.3665C28.0057 26.8665 27.5114 27.2472 26.9261 27.5085C26.3466 27.7756 25.6534 27.9091 24.8466 27.9091ZM36.7571 27.9091V9.90909H39.7912V12.0739H39.9702C40.1293 11.7557 40.3537 11.4176 40.6435 11.0597C40.9332 10.696 41.3253 10.3864 41.8196 10.1307C42.3139 9.86932 42.9446 9.73864 43.7116 9.73864C44.723 9.73864 45.6349 9.99716 46.4474 10.5142C47.2656 11.0256 47.9134 11.7841 48.3906 12.7898C48.8736 13.7898 49.1151 15.017 49.1151 16.4716C49.1151 17.9091 48.8793 19.1307 48.4077 20.1364C47.9361 21.142 47.294 21.9091 46.4815 22.4375C45.669 22.9659 44.7486 23.2301 43.7202 23.2301C42.9702 23.2301 42.348 23.1051 41.8537 22.8551C41.3594 22.6051 40.9616 22.304 40.6605 21.9517C40.3651 21.5937 40.1349 21.2557 39.9702 20.9375H39.8423V27.9091H36.7571ZM39.7827 16.4545C39.7827 17.3011 39.902 18.0426 40.1406 18.679C40.3849 19.3153 40.7344 19.8125 41.1889 20.1705C41.6491 20.5227 42.206 20.6989 42.8594 20.6989C43.5412 20.6989 44.1122 20.517 44.5724 20.1534C45.0327 19.7841 45.3793 19.2812 45.6122 18.6449C45.8509 18.0028 45.9702 17.2727 45.9702 16.4545C45.9702 15.642 45.8537 14.9205 45.6207 14.2898C45.3878 13.6591 45.0412 13.1648 44.581 12.8068C44.1207 12.4489 43.5469 12.2699 42.8594 12.2699C42.2003 12.2699 41.6406 12.4432 41.1804 12.7898C40.7202 13.1364 40.3707 13.6222 40.1321 14.2472C39.8991 14.8722 39.7827 15.608 39.7827 16.4545ZM57.5526 23.2557C56.2401 23.2557 55.1065 22.983 54.152 22.4375C53.2031 21.8864 52.473 21.108 51.9616 20.1023C51.4503 19.0909 51.1946 17.9006 51.1946 16.5312C51.1946 15.1847 51.4503 14.0028 51.9616 12.9858C52.4787 11.9631 53.2003 11.1676 54.1264 10.5994C55.0526 10.0256 56.1406 9.73864 57.3906 9.73864C58.1974 9.73864 58.9588 9.86932 59.6747 10.1307C60.3963 10.3864 61.0327 10.7841 61.5838 11.3239C62.1406 11.8636 62.5781 12.5511 62.8963 13.3864C63.2145 14.2159 63.3736 15.2045 63.3736 16.3523V17.2983H52.6435V15.2188H60.4162C60.4105 14.6278 60.2827 14.1023 60.0327 13.642C59.7827 13.1761 59.4332 12.8097 58.9844 12.5426C58.5412 12.2756 58.0241 12.142 57.4332 12.142C56.8026 12.142 56.2486 12.2955 55.7713 12.6023C55.294 12.9034 54.9219 13.3011 54.6548 13.7955C54.3935 14.2841 54.2599 14.821 54.2543 15.4062V17.2216C54.2543 17.983 54.3935 18.6364 54.6719 19.1818C54.9503 19.7216 55.3395 20.1364 55.8395 20.4261C56.3395 20.7102 56.9247 20.8523 57.5952 20.8523C58.044 20.8523 58.4503 20.7898 58.8139 20.6648C59.1776 20.5341 59.4929 20.3438 59.7599 20.0938C60.027 19.8438 60.2287 19.5341 60.3651 19.1648L63.2457 19.4886C63.0639 20.25 62.7173 20.9148 62.206 21.483C61.7003 22.0455 61.0526 22.483 60.2628 22.7955C59.473 23.1023 58.5696 23.2557 57.5526 23.2557ZM76.3303 13.3693L73.5178 13.6761C73.4382 13.392 73.299 13.125 73.1001 12.875C72.907 12.625 72.6456 12.4233 72.3161 12.2699C71.9865 12.1165 71.5831 12.0398 71.1058 12.0398C70.4638 12.0398 69.924 12.179 69.4865 12.4574C69.0547 12.7358 68.8416 13.0966 68.8473 13.5398C68.8416 13.9205 68.9808 14.2301 69.2649 14.4688C69.5547 14.7074 70.032 14.9034 70.6967 15.0568L72.9297 15.5341C74.1683 15.8011 75.0888 16.2244 75.6911 16.804C76.299 17.3835 76.6058 18.142 76.6115 19.0795C76.6058 19.9034 76.3643 20.6307 75.8871 21.2614C75.4155 21.8864 74.7592 22.375 73.9183 22.7273C73.0774 23.0795 72.1115 23.2557 71.0206 23.2557C69.4183 23.2557 68.1286 22.9205 67.1513 22.25C66.174 21.5739 65.5916 20.6335 65.4041 19.429L68.4126 19.1392C68.549 19.7301 68.8388 20.1761 69.282 20.4773C69.7251 20.7784 70.3018 20.929 71.0121 20.929C71.745 20.929 72.3331 20.7784 72.7763 20.4773C73.2251 20.1761 73.4496 19.804 73.4496 19.3608C73.4496 18.9858 73.3047 18.6761 73.0149 18.4318C72.7308 18.1875 72.2876 18 71.6854 17.8693L69.4524 17.4006C68.1967 17.1392 67.2678 16.6989 66.6655 16.0795C66.0632 15.4545 65.7649 14.6648 65.7706 13.7102C65.7649 12.9034 65.9837 12.2045 66.4268 11.6136C66.8757 11.017 67.4979 10.5568 68.2933 10.233C69.0945 9.90341 70.0178 9.73864 71.0632 9.73864C72.5973 9.73864 73.8047 10.0653 74.6854 10.7188C75.5717 11.3722 76.12 12.2557 76.3303 13.3693ZM84.8658 23.2557C83.5589 23.2557 82.4368 22.9688 81.4993 22.3949C80.5675 21.821 79.8487 21.0284 79.343 20.017C78.843 19 78.593 17.8295 78.593 16.5057C78.593 15.1761 78.8487 14.0028 79.3601 12.9858C79.8714 11.9631 80.593 11.1676 81.5249 10.5994C82.4624 10.0256 83.5703 9.73864 84.8487 9.73864C85.9112 9.73864 86.8516 9.93466 87.6697 10.3267C88.4936 10.7131 89.1499 11.2614 89.6385 11.9716C90.1271 12.6761 90.4055 13.5 90.4737 14.4432H87.5249C87.4055 13.8125 87.1214 13.2869 86.6726 12.8665C86.2294 12.4403 85.6357 12.2273 84.8913 12.2273C84.2607 12.2273 83.7067 12.3977 83.2294 12.7386C82.7521 13.0739 82.38 13.5568 82.1129 14.1875C81.8516 14.8182 81.7209 15.5739 81.7209 16.4545C81.7209 17.3466 81.8516 18.1136 82.1129 18.7557C82.3743 19.392 82.7408 19.8835 83.2124 20.2301C83.6896 20.571 84.2493 20.7415 84.8913 20.7415C85.3459 20.7415 85.7521 20.6562 86.1101 20.4858C86.4737 20.3097 86.7777 20.0568 87.022 19.7273C87.2663 19.3977 87.4339 18.9972 87.5249 18.5256H90.4737C90.3999 19.4517 90.1271 20.2727 89.6555 20.9886C89.1839 21.6989 88.5419 22.2557 87.7294 22.6591C86.9169 23.0568 85.9624 23.2557 84.8658 23.2557ZM93.0071 23V9.90909H95.9986V12.0909H96.1349C96.3736 11.3352 96.7827 10.7528 97.3622 10.3438C97.9474 9.92898 98.6151 9.72159 99.3651 9.72159C99.5355 9.72159 99.7259 9.73011 99.9361 9.74716C100.152 9.75852 100.331 9.77841 100.473 9.80682V12.6449C100.342 12.5994 100.135 12.5597 99.8509 12.5256C99.5724 12.4858 99.3026 12.4659 99.0412 12.4659C98.4787 12.4659 97.973 12.5881 97.5241 12.8324C97.081 13.071 96.7315 13.4034 96.4759 13.8295C96.2202 14.2557 96.0923 14.7472 96.0923 15.304V23H93.0071ZM102.523 23V9.90909H105.608V23H102.523ZM104.074 8.05114C103.585 8.05114 103.165 7.8892 102.812 7.56534C102.46 7.23579 102.284 6.84091 102.284 6.38068C102.284 5.91477 102.46 5.51989 102.812 5.19602C103.165 4.86648 103.585 4.7017 104.074 4.7017C104.568 4.7017 104.989 4.86648 105.335 5.19602C105.688 5.51989 105.864 5.91477 105.864 6.38068C105.864 6.84091 105.688 7.23579 105.335 7.56534C104.989 7.8892 104.568 8.05114 104.074 8.05114ZM108.781 27.9091V9.90909H111.815V12.0739H111.994C112.153 11.7557 112.377 11.4176 112.667 11.0597C112.957 10.696 113.349 10.3864 113.843 10.1307C114.337 9.86932 114.968 9.73864 115.735 9.73864C116.746 9.73864 117.658 9.99716 118.471 10.5142C119.289 11.0256 119.937 11.7841 120.414 12.7898C120.897 13.7898 121.138 15.017 121.138 16.4716C121.138 17.9091 120.903 19.1307 120.431 20.1364C119.96 21.142 119.317 21.9091 118.505 22.4375C117.692 22.9659 116.772 23.2301 115.744 23.2301C114.994 23.2301 114.371 23.1051 113.877 22.8551C113.383 22.6051 112.985 22.304 112.684 21.9517C112.388 21.5937 112.158 21.2557 111.994 20.9375H111.866V27.9091H108.781ZM111.806 16.4545C111.806 17.3011 111.925 18.0426 112.164 18.679C112.408 19.3153 112.758 19.8125 113.212 20.1705C113.673 20.5227 114.229 20.6989 114.883 20.6989C115.565 20.6989 116.136 20.517 116.596 20.1534C117.056 19.7841 117.403 19.2812 117.636 18.6449C117.874 18.0028 117.994 17.2727 117.994 16.4545C117.994 15.642 117.877 14.9205 117.644 14.2898C117.411 13.6591 117.065 13.1648 116.604 12.8068C116.144 12.4489 115.57 12.2699 114.883 12.2699C114.224 12.2699 113.664 12.4432 113.204 12.7898C112.744 13.1364 112.394 13.6222 112.156 14.2472C111.923 14.8722 111.806 15.608 111.806 16.4545ZM130.317 9.90909V12.2955H122.792V9.90909H130.317ZM124.65 6.77273H127.735V19.0625C127.735 19.4773 127.798 19.7955 127.923 20.017C128.053 20.233 128.224 20.3807 128.434 20.4602C128.644 20.5398 128.877 20.5795 129.133 20.5795C129.326 20.5795 129.502 20.5653 129.661 20.5369C129.826 20.5085 129.951 20.483 130.036 20.4602L130.556 22.8722C130.391 22.929 130.156 22.9915 129.849 23.0597C129.548 23.1278 129.178 23.1676 128.741 23.179C127.968 23.2017 127.272 23.0852 126.653 22.8295C126.033 22.5682 125.542 22.1648 125.178 21.6193C124.82 21.0739 124.644 20.392 124.65 19.5739V6.77273ZM153.928 11.4347H150.74C150.649 10.9119 150.482 10.4489 150.237 10.0455C149.993 9.63636 149.689 9.28977 149.325 9.00568C148.962 8.72159 148.547 8.50852 148.081 8.36648C147.621 8.21875 147.124 8.14489 146.589 8.14489C145.641 8.14489 144.8 8.38352 144.067 8.86079C143.334 9.33239 142.76 10.0256 142.345 10.9403C141.93 11.8494 141.723 12.9602 141.723 14.2727C141.723 15.608 141.93 16.733 142.345 17.6477C142.766 18.5568 143.339 19.2443 144.067 19.7102C144.8 20.1705 145.638 20.4006 146.581 20.4006C147.104 20.4006 147.592 20.3324 148.047 20.196C148.507 20.054 148.919 19.8466 149.283 19.5739C149.652 19.3011 149.962 18.9659 150.212 18.5682C150.467 18.1705 150.643 17.7159 150.74 17.2045L153.928 17.2216C153.808 18.0511 153.55 18.8295 153.152 19.5568C152.76 20.2841 152.246 20.9261 151.609 21.483C150.973 22.0341 150.229 22.4659 149.376 22.7784C148.524 23.0852 147.578 23.2386 146.538 23.2386C145.004 23.2386 143.635 22.8835 142.43 22.1733C141.226 21.4631 140.277 20.4375 139.584 19.0966C138.891 17.7557 138.544 16.1477 138.544 14.2727C138.544 12.392 138.893 10.7841 139.592 9.44886C140.291 8.10795 141.243 7.08239 142.447 6.37216C143.652 5.66193 145.016 5.30682 146.538 5.30682C147.51 5.30682 148.413 5.44318 149.249 5.71591C150.084 5.98864 150.828 6.3892 151.482 6.91761C152.135 7.44034 152.672 8.08239 153.092 8.84375C153.518 9.59943 153.797 10.4631 153.928 11.4347ZM162.397 23.2557C161.119 23.2557 160.011 22.9744 159.073 22.4119C158.136 21.8494 157.408 21.0625 156.891 20.0511C156.38 19.0398 156.124 17.858 156.124 16.5057C156.124 15.1534 156.38 13.9687 156.891 12.9517C157.408 11.9347 158.136 11.1449 159.073 10.5824C160.011 10.0199 161.119 9.73864 162.397 9.73864C163.675 9.73864 164.783 10.0199 165.721 10.5824C166.658 11.1449 167.383 11.9347 167.894 12.9517C168.411 13.9687 168.67 15.1534 168.67 16.5057C168.67 17.858 168.411 19.0398 167.894 20.0511C167.383 21.0625 166.658 21.8494 165.721 22.4119C164.783 22.9744 163.675 23.2557 162.397 23.2557ZM162.414 20.7841C163.107 20.7841 163.687 20.5937 164.153 20.2131C164.619 19.8267 164.965 19.3097 165.192 18.6619C165.425 18.0142 165.542 17.2926 165.542 16.4972C165.542 15.696 165.425 14.9716 165.192 14.3239C164.965 13.6705 164.619 13.1506 164.153 12.7642C163.687 12.3778 163.107 12.1847 162.414 12.1847C161.704 12.1847 161.113 12.3778 160.641 12.7642C160.175 13.1506 159.826 13.6705 159.593 14.3239C159.366 14.9716 159.252 15.696 159.252 16.4972C159.252 17.2926 159.366 18.0142 159.593 18.6619C159.826 19.3097 160.175 19.8267 160.641 20.2131C161.113 20.5937 161.704 20.7841 162.414 20.7841ZM171.288 23V9.90909H174.237V12.1335H174.391C174.663 11.3835 175.115 10.7983 175.746 10.3778C176.376 9.9517 177.129 9.73864 178.004 9.73864C178.891 9.73864 179.638 9.95455 180.246 10.3864C180.859 10.8125 181.291 11.3949 181.541 12.1335H181.678C181.967 11.4062 182.456 10.8267 183.143 10.3949C183.837 9.95739 184.658 9.73864 185.607 9.73864C186.811 9.73864 187.794 10.1193 188.555 10.8807C189.317 11.642 189.697 12.7528 189.697 14.2131V23H186.604V14.6903C186.604 13.8778 186.388 13.2841 185.956 12.9091C185.524 12.5284 184.996 12.3381 184.371 12.3381C183.626 12.3381 183.044 12.571 182.624 13.0369C182.209 13.4972 182.001 14.0966 182.001 14.8352V23H178.976V14.5625C178.976 13.8864 178.771 13.3466 178.362 12.9432C177.959 12.5398 177.43 12.3381 176.777 12.3381C176.334 12.3381 175.93 12.4517 175.567 12.679C175.203 12.9006 174.913 13.2159 174.697 13.625C174.482 14.0284 174.374 14.5 174.374 15.0398V23H171.288ZM192.827 27.9091V9.90909H195.862V12.0739H196.04C196.2 11.7557 196.424 11.4176 196.714 11.0597C197.004 10.696 197.396 10.3864 197.89 10.1307C198.384 9.86932 199.015 9.73864 199.782 9.73864C200.793 9.73864 201.705 9.99716 202.518 10.5142C203.336 11.0256 203.984 11.7841 204.461 12.7898C204.944 13.7898 205.185 15.017 205.185 16.4716C205.185 17.9091 204.95 19.1307 204.478 20.1364C204.006 21.142 203.364 21.9091 202.552 22.4375C201.739 22.9659 200.819 23.2301 199.79 23.2301C199.04 23.2301 198.418 23.1051 197.924 22.8551C197.43 22.6051 197.032 22.304 196.731 21.9517C196.435 21.5937 196.205 21.2557 196.04 20.9375H195.913V27.9091H192.827ZM195.853 16.4545C195.853 17.3011 195.972 18.0426 196.211 18.679C196.455 19.3153 196.805 19.8125 197.259 20.1705C197.719 20.5227 198.276 20.6989 198.93 20.6989C199.612 20.6989 200.183 20.517 200.643 20.1534C201.103 19.7841 201.45 19.2812 201.683 18.6449C201.921 18.0028 202.04 17.2727 202.04 16.4545C202.04 15.642 201.924 14.9205 201.691 14.2898C201.458 13.6591 201.112 13.1648 200.651 12.8068C200.191 12.4489 199.617 12.2699 198.93 12.2699C198.271 12.2699 197.711 12.4432 197.251 12.7898C196.79 13.1364 196.441 13.6222 196.202 14.2472C195.969 14.8722 195.853 15.608 195.853 16.4545ZM213.538 23.2557C212.259 23.2557 211.151 22.9744 210.214 22.4119C209.276 21.8494 208.549 21.0625 208.032 20.0511C207.521 19.0398 207.265 17.858 207.265 16.5057C207.265 15.1534 207.521 13.9687 208.032 12.9517C208.549 11.9347 209.276 11.1449 210.214 10.5824C211.151 10.0199 212.259 9.73864 213.538 9.73864C214.816 9.73864 215.924 10.0199 216.862 10.5824C217.799 11.1449 218.523 11.9347 219.035 12.9517C219.552 13.9687 219.81 15.1534 219.81 16.5057C219.81 17.858 219.552 19.0398 219.035 20.0511C218.523 21.0625 217.799 21.8494 216.862 22.4119C215.924 22.9744 214.816 23.2557 213.538 23.2557ZM213.555 20.7841C214.248 20.7841 214.827 20.5937 215.293 20.2131C215.759 19.8267 216.106 19.3097 216.333 18.6619C216.566 18.0142 216.683 17.2926 216.683 16.4972C216.683 15.696 216.566 14.9716 216.333 14.3239C216.106 13.6705 215.759 13.1506 215.293 12.7642C214.827 12.3778 214.248 12.1847 213.555 12.1847C212.844 12.1847 212.254 12.3778 211.782 12.7642C211.316 13.1506 210.967 13.6705 210.734 14.3239C210.506 14.9716 210.393 15.696 210.393 16.4972C210.393 17.2926 210.506 18.0142 210.734 18.6619C210.967 19.3097 211.316 19.8267 211.782 20.2131C212.254 20.5937 212.844 20.7841 213.555 20.7841ZM225.514 15.3295V23H222.429V9.90909H225.378V12.1335H225.531C225.832 11.4006 226.313 10.8182 226.972 10.3864C227.636 9.95455 228.457 9.73864 229.435 9.73864C230.338 9.73864 231.125 9.93182 231.795 10.3182C232.472 10.7045 232.994 11.2642 233.364 11.9972C233.739 12.7301 233.923 13.6193 233.918 14.6648V23H230.832V15.142C230.832 14.267 230.605 13.5824 230.151 13.0881C229.702 12.5937 229.08 12.3466 228.284 12.3466C227.744 12.3466 227.264 12.4659 226.844 12.7045C226.429 12.9375 226.102 13.2756 225.864 13.7188C225.631 14.1619 225.514 14.6989 225.514 15.3295ZM242.849 23.2557C241.537 23.2557 240.403 22.983 239.449 22.4375C238.5 21.8864 237.77 21.108 237.259 20.1023C236.747 19.0909 236.491 17.9006 236.491 16.5312C236.491 15.1847 236.747 14.0028 237.259 12.9858C237.776 11.9631 238.497 11.1676 239.423 10.5994C240.349 10.0256 241.438 9.73864 242.688 9.73864C243.494 9.73864 244.256 9.86932 244.972 10.1307C245.693 10.3864 246.33 10.7841 246.881 11.3239C247.438 11.8636 247.875 12.5511 248.193 13.3864C248.511 14.2159 248.67 15.2045 248.67 16.3523V17.2983H237.94V15.2188H245.713C245.707 14.6278 245.58 14.1023 245.33 13.642C245.08 13.1761 244.73 12.8097 244.281 12.5426C243.838 12.2756 243.321 12.142 242.73 12.142C242.099 12.142 241.545 12.2955 241.068 12.6023C240.591 12.9034 240.219 13.3011 239.952 13.7955C239.69 14.2841 239.557 14.821 239.551 15.4062V17.2216C239.551 17.983 239.69 18.6364 239.969 19.1818C240.247 19.7216 240.636 20.1364 241.136 20.4261C241.636 20.7102 242.222 20.8523 242.892 20.8523C243.341 20.8523 243.747 20.7898 244.111 20.6648C244.474 20.5341 244.79 20.3438 245.057 20.0938C245.324 19.8438 245.526 19.5341 245.662 19.1648L248.543 19.4886C248.361 20.25 248.014 20.9148 247.503 21.483C246.997 22.0455 246.349 22.483 245.56 22.7955C244.77 23.1023 243.866 23.2557 242.849 23.2557ZM254.366 15.3295V23H251.281V9.90909H254.229V12.1335H254.383C254.684 11.4006 255.164 10.8182 255.823 10.3864C256.488 9.95455 257.309 9.73864 258.286 9.73864C259.19 9.73864 259.977 9.93182 260.647 10.3182C261.323 10.7045 261.846 11.2642 262.215 11.9972C262.59 12.7301 262.775 13.6193 262.769 14.6648V23H259.684V15.142C259.684 14.267 259.457 13.5824 259.002 13.0881C258.553 12.5937 257.931 12.3466 257.136 12.3466C256.596 12.3466 256.116 12.4659 255.695 12.7045C255.281 12.9375 254.954 13.2756 254.715 13.7188C254.482 14.1619 254.366 14.6989 254.366 15.3295ZM272.442 9.90909V12.2955H264.917V9.90909H272.442ZM266.775 6.77273H269.86V19.0625C269.86 19.4773 269.923 19.7955 270.048 20.017C270.178 20.233 270.349 20.3807 270.559 20.4602C270.769 20.5398 271.002 20.5795 271.258 20.5795C271.451 20.5795 271.627 20.5653 271.786 20.5369C271.951 20.5085 272.076 20.483 272.161 20.4602L272.681 22.8722C272.516 22.929 272.281 22.9915 271.974 23.0597C271.673 23.1278 271.303 23.1676 270.866 23.179C270.093 23.2017 269.397 23.0852 268.778 22.8295C268.158 22.5682 267.667 22.1648 267.303 21.6193C266.945 21.0739 266.769 20.392 266.775 19.5739V6.77273Z"
    fill="#5F85E7"
  />
  <path
    d="M480.722 8.54545H484.591L489.773 21.1932H489.977L495.159 8.54545H499.028V26H495.994V14.0085H495.832L491.009 25.9489H488.741L483.918 13.983H483.756V26H480.722V8.54545ZM506.102 26.2642C505.273 26.2642 504.526 26.1165 503.861 25.821C503.202 25.5199 502.679 25.0767 502.293 24.4915C501.912 23.9062 501.722 23.1847 501.722 22.3267C501.722 21.5881 501.858 20.9773 502.131 20.4943C502.403 20.0114 502.776 19.625 503.247 19.3352C503.719 19.0455 504.25 18.8267 504.841 18.679C505.438 18.5256 506.054 18.4148 506.69 18.3466C507.457 18.267 508.08 18.196 508.557 18.1335C509.034 18.0653 509.381 17.9631 509.597 17.8267C509.818 17.6847 509.929 17.4659 509.929 17.1705V17.1193C509.929 16.4773 509.739 15.9801 509.358 15.6278C508.977 15.2756 508.429 15.0994 507.713 15.0994C506.957 15.0994 506.358 15.2642 505.915 15.5938C505.477 15.9233 505.182 16.3125 505.028 16.7614L502.148 16.3523C502.375 15.5568 502.75 14.892 503.273 14.358C503.795 13.8182 504.435 13.4148 505.19 13.1477C505.946 12.875 506.781 12.7386 507.696 12.7386C508.327 12.7386 508.955 12.8125 509.58 12.9602C510.205 13.108 510.776 13.3523 511.293 13.6932C511.81 14.0284 512.224 14.4858 512.537 15.0653C512.855 15.6449 513.014 16.3693 513.014 17.2386V26H510.048V24.2017H509.946C509.759 24.5653 509.494 24.9062 509.153 25.2244C508.818 25.5369 508.395 25.7898 507.884 25.983C507.378 26.1705 506.784 26.2642 506.102 26.2642ZM506.903 23.9972C507.523 23.9972 508.06 23.875 508.514 23.6307C508.969 23.3807 509.318 23.0511 509.562 22.642C509.812 22.233 509.938 21.7869 509.938 21.304V19.7614C509.841 19.8409 509.676 19.9148 509.443 19.983C509.216 20.0511 508.96 20.1108 508.676 20.1619C508.392 20.2131 508.111 20.2585 507.832 20.2983C507.554 20.3381 507.313 20.3722 507.108 20.4006C506.648 20.4631 506.236 20.5653 505.872 20.7074C505.509 20.8494 505.222 21.0483 505.011 21.304C504.801 21.554 504.696 21.8778 504.696 22.2756C504.696 22.8438 504.903 23.2727 505.318 23.5625C505.733 23.8523 506.261 23.9972 506.903 23.9972ZM516.116 26V12.9091H519.108V15.0909H519.244C519.483 14.3352 519.892 13.7528 520.472 13.3438C521.057 12.929 521.724 12.7216 522.474 12.7216C522.645 12.7216 522.835 12.7301 523.045 12.7472C523.261 12.7585 523.44 12.7784 523.582 12.8068V15.6449C523.452 15.5994 523.244 15.5597 522.96 15.5256C522.682 15.4858 522.412 15.4659 522.151 15.4659C521.588 15.4659 521.082 15.5881 520.634 15.8324C520.19 16.071 519.841 16.4034 519.585 16.8295C519.33 17.2557 519.202 17.7472 519.202 18.304V26H516.116ZM528.445 21.892L528.436 18.1676H528.93L533.635 12.9091H537.24L531.453 19.3523H530.814L528.445 21.892ZM525.632 26V8.54545H528.717V26H525.632ZM533.848 26L529.587 20.0426L531.666 17.8693L537.538 26H533.848ZM543.615 26.2301C542.587 26.2301 541.666 25.9659 540.854 25.4375C540.041 24.9091 539.399 24.142 538.928 23.1364C538.456 22.1307 538.22 20.9091 538.22 19.4716C538.22 18.017 538.459 16.7898 538.936 15.7898C539.419 14.7841 540.07 14.0256 540.888 13.5142C541.706 12.9972 542.618 12.7386 543.624 12.7386C544.391 12.7386 545.021 12.8693 545.516 13.1307C546.01 13.3864 546.402 13.696 546.692 14.0597C546.982 14.4176 547.206 14.7557 547.365 15.0739H547.493V8.54545H550.587V26H547.553V23.9375H547.365C547.206 24.2557 546.976 24.5937 546.675 24.9517C546.374 25.304 545.976 25.6051 545.482 25.8551C544.987 26.1051 544.365 26.2301 543.615 26.2301ZM544.476 23.6989C545.129 23.6989 545.686 23.5227 546.146 23.1705C546.607 22.8125 546.956 22.3153 547.195 21.679C547.433 21.0426 547.553 20.3011 547.553 19.4545C547.553 18.608 547.433 17.8722 547.195 17.2472C546.962 16.6222 546.615 16.1364 546.155 15.7898C545.7 15.4432 545.141 15.2699 544.476 15.2699C543.788 15.2699 543.214 15.4489 542.754 15.8068C542.294 16.1648 541.947 16.6591 541.714 17.2898C541.482 17.9205 541.365 18.642 541.365 19.4545C541.365 20.2727 541.482 21.0028 541.714 21.6449C541.953 22.2812 542.303 22.7841 542.763 23.1534C543.229 23.517 543.8 23.6989 544.476 23.6989ZM559.585 26.2557C558.306 26.2557 557.198 25.9744 556.261 25.4119C555.323 24.8494 554.596 24.0625 554.079 23.0511C553.567 22.0398 553.312 20.858 553.312 19.5057C553.312 18.1534 553.567 16.9687 554.079 15.9517C554.596 14.9347 555.323 14.1449 556.261 13.5824C557.198 13.0199 558.306 12.7386 559.585 12.7386C560.863 12.7386 561.971 13.0199 562.908 13.5824C563.846 14.1449 564.57 14.9347 565.082 15.9517C565.599 16.9687 565.857 18.1534 565.857 19.5057C565.857 20.858 565.599 22.0398 565.082 23.0511C564.57 24.0625 563.846 24.8494 562.908 25.4119C561.971 25.9744 560.863 26.2557 559.585 26.2557ZM559.602 23.7841C560.295 23.7841 560.874 23.5937 561.34 23.2131C561.806 22.8267 562.153 22.3097 562.38 21.6619C562.613 21.0142 562.729 20.2926 562.729 19.4972C562.729 18.696 562.613 17.9716 562.38 17.3239C562.153 16.6705 561.806 16.1506 561.34 15.7642C560.874 15.3778 560.295 15.1847 559.602 15.1847C558.891 15.1847 558.3 15.3778 557.829 15.7642C557.363 16.1506 557.013 16.6705 556.781 17.3239C556.553 17.9716 556.44 18.696 556.44 19.4972C556.44 20.2926 556.553 21.0142 556.781 21.6619C557.013 22.3097 557.363 22.8267 557.829 23.2131C558.3 23.5937 558.891 23.7841 559.602 23.7841ZM570.803 26L567.104 12.9091H570.249L572.55 22.1136H572.669L575.021 12.9091H578.132L580.484 22.0625H580.612L582.879 12.9091H586.033L582.325 26H579.112L576.658 17.1534H576.479L574.024 26H570.803ZM591.272 18.3295V26H588.187V12.9091H591.136V15.1335H591.289C591.59 14.4006 592.07 13.8182 592.729 13.3864C593.394 12.9545 594.215 12.7386 595.192 12.7386C596.096 12.7386 596.883 12.9318 597.553 13.3182C598.229 13.7045 598.752 14.2642 599.121 14.9972C599.496 15.7301 599.681 16.6193 599.675 17.6648V26H596.59V18.142C596.59 17.267 596.363 16.5824 595.908 16.0881C595.46 15.5937 594.837 15.3466 594.042 15.3466C593.502 15.3466 593.022 15.4659 592.602 15.7045C592.187 15.9375 591.86 16.2756 591.621 16.7188C591.388 17.1619 591.272 17.6989 591.272 18.3295ZM614.475 26.2557C613.168 26.2557 612.046 25.9688 611.109 25.3949C610.177 24.821 609.458 24.0284 608.952 23.017C608.452 22 608.202 20.8295 608.202 19.5057C608.202 18.1761 608.458 17.0028 608.969 15.9858C609.481 14.9631 610.202 14.1676 611.134 13.5994C612.072 13.0256 613.18 12.7386 614.458 12.7386C615.521 12.7386 616.461 12.9347 617.279 13.3267C618.103 13.7131 618.759 14.2614 619.248 14.9716C619.737 15.6761 620.015 16.5 620.083 17.4432H617.134C617.015 16.8125 616.731 16.2869 616.282 15.8665C615.839 15.4403 615.245 15.2273 614.501 15.2273C613.87 15.2273 613.316 15.3977 612.839 15.7386C612.362 16.0739 611.989 16.5568 611.722 17.1875C611.461 17.8182 611.33 18.5739 611.33 19.4545C611.33 20.3466 611.461 21.1136 611.722 21.7557C611.984 22.392 612.35 22.8835 612.822 23.2301C613.299 23.571 613.859 23.7415 614.501 23.7415C614.955 23.7415 615.362 23.6562 615.719 23.4858C616.083 23.3097 616.387 23.0568 616.631 22.7273C616.876 22.3977 617.043 21.9972 617.134 21.5256H620.083C620.009 22.4517 619.737 23.2727 619.265 23.9886C618.793 24.6989 618.151 25.2557 617.339 25.6591C616.526 26.0568 615.572 26.2557 614.475 26.2557ZM628.327 26.2557C627.048 26.2557 625.94 25.9744 625.003 25.4119C624.065 24.8494 623.338 24.0625 622.821 23.0511C622.31 22.0398 622.054 20.858 622.054 19.5057C622.054 18.1534 622.31 16.9687 622.821 15.9517C623.338 14.9347 624.065 14.1449 625.003 13.5824C625.94 13.0199 627.048 12.7386 628.327 12.7386C629.605 12.7386 630.713 13.0199 631.651 13.5824C632.588 14.1449 633.313 14.9347 633.824 15.9517C634.341 16.9687 634.599 18.1534 634.599 19.5057C634.599 20.858 634.341 22.0398 633.824 23.0511C633.313 24.0625 632.588 24.8494 631.651 25.4119C630.713 25.9744 629.605 26.2557 628.327 26.2557ZM628.344 23.7841C629.037 23.7841 629.616 23.5937 630.082 23.2131C630.548 22.8267 630.895 22.3097 631.122 21.6619C631.355 21.0142 631.472 20.2926 631.472 19.4972C631.472 18.696 631.355 17.9716 631.122 17.3239C630.895 16.6705 630.548 16.1506 630.082 15.7642C629.616 15.3778 629.037 15.1847 628.344 15.1847C627.634 15.1847 627.043 15.3778 626.571 15.7642C626.105 16.1506 625.756 16.6705 625.523 17.3239C625.295 17.9716 625.182 18.696 625.182 19.4972C625.182 20.2926 625.295 21.0142 625.523 21.6619C625.756 22.3097 626.105 22.8267 626.571 23.2131C627.043 23.5937 627.634 23.7841 628.344 23.7841ZM640.303 18.3295V26H637.218V12.9091H640.167V15.1335H640.32C640.621 14.4006 641.102 13.8182 641.761 13.3864C642.425 12.9545 643.246 12.7386 644.224 12.7386C645.127 12.7386 645.914 12.9318 646.585 13.3182C647.261 13.7045 647.783 14.2642 648.153 14.9972C648.528 15.7301 648.712 16.6193 648.707 17.6648V26H645.621V18.142C645.621 17.267 645.394 16.5824 644.94 16.0881C644.491 15.5937 643.869 15.3466 643.073 15.3466C642.533 15.3466 642.053 15.4659 641.633 15.7045C641.218 15.9375 640.891 16.2756 640.653 16.7188C640.42 17.1619 640.303 17.6989 640.303 18.3295ZM658.38 12.9091V15.2955H650.854V12.9091H658.38ZM652.712 9.77273H655.798V22.0625C655.798 22.4773 655.86 22.7955 655.985 23.017C656.116 23.233 656.286 23.3807 656.496 23.4602C656.707 23.5398 656.94 23.5795 657.195 23.5795C657.388 23.5795 657.565 23.5653 657.724 23.5369C657.888 23.5085 658.013 23.483 658.099 23.4602L658.619 25.8722C658.454 25.929 658.218 25.9915 657.911 26.0597C657.61 26.1278 657.241 26.1676 656.803 26.179C656.031 26.2017 655.335 26.0852 654.715 25.8295C654.096 25.5682 653.604 25.1648 653.241 24.6193C652.883 24.0739 652.707 23.392 652.712 22.5739V9.77273ZM666.615 26.2557C665.303 26.2557 664.169 25.983 663.214 25.4375C662.266 24.8864 661.536 24.108 661.024 23.1023C660.513 22.0909 660.257 20.9006 660.257 19.5312C660.257 18.1847 660.513 17.0028 661.024 15.9858C661.541 14.9631 662.263 14.1676 663.189 13.5994C664.115 13.0256 665.203 12.7386 666.453 12.7386C667.26 12.7386 668.021 12.8693 668.737 13.1307C669.459 13.3864 670.095 13.7841 670.646 14.3239C671.203 14.8636 671.641 15.5511 671.959 16.3864C672.277 17.2159 672.436 18.2045 672.436 19.3523V20.2983H661.706V18.2188H669.479C669.473 17.6278 669.345 17.1023 669.095 16.642C668.845 16.1761 668.496 15.8097 668.047 15.5426C667.604 15.2756 667.087 15.142 666.496 15.142C665.865 15.142 665.311 15.2955 664.834 15.6023C664.357 15.9034 663.984 16.3011 663.717 16.7955C663.456 17.2841 663.322 17.821 663.317 18.4062V20.2216C663.317 20.983 663.456 21.6364 663.734 22.1818C664.013 22.7216 664.402 23.1364 664.902 23.4261C665.402 23.7102 665.987 23.8523 666.658 23.8523C667.107 23.8523 667.513 23.7898 667.876 23.6648C668.24 23.5341 668.555 23.3438 668.822 23.0938C669.089 22.8438 669.291 22.5341 669.428 22.1648L672.308 22.4886C672.126 23.25 671.78 23.9148 671.268 24.483C670.763 25.0455 670.115 25.483 669.325 25.7955C668.536 26.1023 667.632 26.2557 666.615 26.2557ZM678.131 18.3295V26H675.046V12.9091H677.995V15.1335H678.148C678.45 14.4006 678.93 13.8182 679.589 13.3864C680.254 12.9545 681.075 12.7386 682.052 12.7386C682.955 12.7386 683.742 12.9318 684.413 13.3182C685.089 13.7045 685.612 14.2642 685.981 14.9972C686.356 15.7301 686.54 16.6193 686.535 17.6648V26H683.45V18.142C683.45 17.267 683.222 16.5824 682.768 16.0881C682.319 15.5937 681.697 15.3466 680.901 15.3466C680.362 15.3466 679.881 15.4659 679.461 15.7045C679.046 15.9375 678.719 16.2756 678.481 16.7188C678.248 17.1619 678.131 17.6989 678.131 18.3295ZM696.208 12.9091V15.2955H688.683V12.9091H696.208ZM690.54 9.77273H693.626V22.0625C693.626 22.4773 693.688 22.7955 693.813 23.017C693.944 23.233 694.114 23.3807 694.325 23.4602C694.535 23.5398 694.768 23.5795 695.023 23.5795C695.217 23.5795 695.393 23.5653 695.552 23.5369C695.717 23.5085 695.842 23.483 695.927 23.4602L696.447 25.8722C696.282 25.929 696.046 25.9915 695.739 26.0597C695.438 26.1278 695.069 26.1676 694.631 26.179C693.859 26.2017 693.163 26.0852 692.543 25.8295C691.924 25.5682 691.433 25.1648 691.069 24.6193C690.711 24.0739 690.535 23.392 690.54 22.5739V9.77273Z"
    fill="#5F85E7"
  />
  <path
    d="M276.722 361V343.545H279.884V350.935H287.972V343.545H291.142V361H287.972V353.585H279.884V361H276.722ZM293.814 346.196V343.545H307.74V346.196H302.345V361H299.209V346.196H293.814ZM310.425 343.545H314.294L319.476 356.193H319.68L324.862 343.545H328.732V361H325.697V349.009H325.536L320.712 360.949H318.445L313.621 348.983H313.459V361H310.425V343.545ZM332.175 361V343.545H335.337V358.349H343.024V361H332.175ZM351.722 361V343.545H363.074V346.196H354.884V350.935H362.486V353.585H354.884V358.349H363.142V361H351.722ZM369.249 343.545V361H366.163V343.545H369.249ZM378.217 361.256C376.904 361.256 375.771 360.983 374.816 360.438C373.867 359.886 373.137 359.108 372.626 358.102C372.114 357.091 371.859 355.901 371.859 354.531C371.859 353.185 372.114 352.003 372.626 350.986C373.143 349.963 373.864 349.168 374.79 348.599C375.717 348.026 376.805 347.739 378.055 347.739C378.862 347.739 379.623 347.869 380.339 348.131C381.06 348.386 381.697 348.784 382.248 349.324C382.805 349.864 383.242 350.551 383.56 351.386C383.879 352.216 384.038 353.205 384.038 354.352V355.298H373.308V353.219H381.08C381.075 352.628 380.947 352.102 380.697 351.642C380.447 351.176 380.097 350.81 379.648 350.543C379.205 350.276 378.688 350.142 378.097 350.142C377.467 350.142 376.913 350.295 376.435 350.602C375.958 350.903 375.586 351.301 375.319 351.795C375.058 352.284 374.924 352.821 374.918 353.406V355.222C374.918 355.983 375.058 356.636 375.336 357.182C375.614 357.722 376.004 358.136 376.504 358.426C377.004 358.71 377.589 358.852 378.259 358.852C378.708 358.852 379.114 358.79 379.478 358.665C379.842 358.534 380.157 358.344 380.424 358.094C380.691 357.844 380.893 357.534 381.029 357.165L383.91 357.489C383.728 358.25 383.381 358.915 382.87 359.483C382.364 360.045 381.717 360.483 380.927 360.795C380.137 361.102 379.234 361.256 378.217 361.256ZM386.648 361V347.909H389.597V350.134H389.75C390.023 349.384 390.474 348.798 391.105 348.378C391.736 347.952 392.489 347.739 393.364 347.739C394.25 347.739 394.997 347.955 395.605 348.386C396.219 348.812 396.651 349.395 396.901 350.134H397.037C397.327 349.406 397.815 348.827 398.503 348.395C399.196 347.957 400.017 347.739 400.966 347.739C402.17 347.739 403.153 348.119 403.915 348.881C404.676 349.642 405.057 350.753 405.057 352.213V361H401.963V352.69C401.963 351.878 401.747 351.284 401.315 350.909C400.884 350.528 400.355 350.338 399.73 350.338C398.986 350.338 398.403 350.571 397.983 351.037C397.568 351.497 397.361 352.097 397.361 352.835V361H394.335V352.562C394.335 351.886 394.131 351.347 393.722 350.943C393.318 350.54 392.79 350.338 392.136 350.338C391.693 350.338 391.29 350.452 390.926 350.679C390.563 350.901 390.273 351.216 390.057 351.625C389.841 352.028 389.733 352.5 389.733 353.04V361H386.648ZM413.982 361.256C412.67 361.256 411.536 360.983 410.582 360.438C409.633 359.886 408.903 359.108 408.391 358.102C407.88 357.091 407.624 355.901 407.624 354.531C407.624 353.185 407.88 352.003 408.391 350.986C408.908 349.963 409.63 349.168 410.556 348.599C411.482 348.026 412.57 347.739 413.82 347.739C414.627 347.739 415.388 347.869 416.104 348.131C416.826 348.386 417.462 348.784 418.013 349.324C418.57 349.864 419.008 350.551 419.326 351.386C419.644 352.216 419.803 353.205 419.803 354.352V355.298H409.073V353.219H416.846C416.84 352.628 416.712 352.102 416.462 351.642C416.212 351.176 415.863 350.81 415.414 350.543C414.971 350.276 414.454 350.142 413.863 350.142C413.232 350.142 412.678 350.295 412.201 350.602C411.724 350.903 411.352 351.301 411.085 351.795C410.823 352.284 410.69 352.821 410.684 353.406V355.222C410.684 355.983 410.823 356.636 411.102 357.182C411.38 357.722 411.769 358.136 412.269 358.426C412.769 358.71 413.354 358.852 414.025 358.852C414.474 358.852 414.88 358.79 415.244 358.665C415.607 358.534 415.923 358.344 416.19 358.094C416.457 357.844 416.658 357.534 416.795 357.165L419.675 357.489C419.494 358.25 419.147 358.915 418.636 359.483C418.13 360.045 417.482 360.483 416.692 360.795C415.903 361.102 414.999 361.256 413.982 361.256ZM425.499 353.33V361H422.413V347.909H425.362V350.134H425.516C425.817 349.401 426.297 348.818 426.956 348.386C427.621 347.955 428.442 347.739 429.419 347.739C430.322 347.739 431.109 347.932 431.78 348.318C432.456 348.705 432.979 349.264 433.348 349.997C433.723 350.73 433.908 351.619 433.902 352.665V361H430.817V353.142C430.817 352.267 430.589 351.582 430.135 351.088C429.686 350.594 429.064 350.347 428.268 350.347C427.729 350.347 427.249 350.466 426.828 350.705C426.413 350.937 426.087 351.276 425.848 351.719C425.615 352.162 425.499 352.699 425.499 353.33ZM443.575 347.909V350.295H436.05V347.909H443.575ZM437.908 344.773H440.993V357.062C440.993 357.477 441.055 357.795 441.18 358.017C441.311 358.233 441.482 358.381 441.692 358.46C441.902 358.54 442.135 358.58 442.391 358.58C442.584 358.58 442.76 358.565 442.919 358.537C443.084 358.509 443.209 358.483 443.294 358.46L443.814 360.872C443.649 360.929 443.413 360.991 443.107 361.06C442.805 361.128 442.436 361.168 441.999 361.179C441.226 361.202 440.53 361.085 439.911 360.83C439.291 360.568 438.8 360.165 438.436 359.619C438.078 359.074 437.902 358.392 437.908 357.574V344.773Z"
    fill="#5F85E7"
  />
  <path
    d="M466.207 582.344C466.128 581.599 465.793 581.02 465.202 580.605C464.616 580.19 463.855 579.983 462.918 579.983C462.259 579.983 461.693 580.082 461.222 580.281C460.75 580.48 460.389 580.75 460.139 581.091C459.889 581.432 459.761 581.821 459.756 582.259C459.756 582.622 459.838 582.937 460.003 583.205C460.173 583.472 460.403 583.699 460.693 583.886C460.983 584.068 461.304 584.222 461.656 584.347C462.009 584.472 462.364 584.577 462.722 584.662L464.358 585.071C465.017 585.224 465.651 585.432 466.259 585.693C466.872 585.955 467.42 586.284 467.903 586.682C468.392 587.08 468.778 587.56 469.062 588.122C469.347 588.685 469.489 589.344 469.489 590.099C469.489 591.122 469.227 592.023 468.705 592.801C468.182 593.574 467.426 594.179 466.438 594.616C465.455 595.048 464.264 595.264 462.866 595.264C461.509 595.264 460.33 595.054 459.33 594.634C458.335 594.213 457.557 593.599 456.994 592.793C456.438 591.986 456.136 591.003 456.091 589.844H459.202C459.247 590.452 459.435 590.957 459.764 591.361C460.094 591.764 460.523 592.065 461.051 592.264C461.585 592.463 462.182 592.562 462.841 592.562C463.528 592.562 464.131 592.46 464.648 592.256C465.17 592.045 465.58 591.756 465.875 591.386C466.17 591.011 466.321 590.574 466.327 590.074C466.321 589.619 466.188 589.244 465.926 588.949C465.665 588.648 465.298 588.398 464.827 588.199C464.361 587.994 463.815 587.812 463.19 587.653L461.205 587.142C459.767 586.773 458.631 586.213 457.795 585.463C456.966 584.707 456.551 583.705 456.551 582.455C456.551 581.426 456.83 580.526 457.386 579.753C457.949 578.98 458.713 578.381 459.679 577.955C460.645 577.523 461.739 577.307 462.96 577.307C464.199 577.307 465.284 577.523 466.216 577.955C467.153 578.381 467.889 578.974 468.423 579.736C468.957 580.491 469.233 581.361 469.25 582.344H466.207ZM477.967 595.256C476.654 595.256 475.521 594.983 474.566 594.438C473.617 593.886 472.887 593.108 472.376 592.102C471.864 591.091 471.609 589.901 471.609 588.531C471.609 587.185 471.864 586.003 472.376 584.986C472.893 583.963 473.614 583.168 474.54 582.599C475.467 582.026 476.555 581.739 477.805 581.739C478.612 581.739 479.373 581.869 480.089 582.131C480.81 582.386 481.447 582.784 481.998 583.324C482.555 583.864 482.992 584.551 483.31 585.386C483.629 586.216 483.788 587.205 483.788 588.352V589.298H473.058V587.219H480.83C480.825 586.628 480.697 586.102 480.447 585.642C480.197 585.176 479.847 584.81 479.398 584.543C478.955 584.276 478.438 584.142 477.847 584.142C477.217 584.142 476.663 584.295 476.185 584.602C475.708 584.903 475.336 585.301 475.069 585.795C474.808 586.284 474.674 586.821 474.668 587.406V589.222C474.668 589.983 474.808 590.636 475.086 591.182C475.364 591.722 475.754 592.136 476.254 592.426C476.754 592.71 477.339 592.852 478.009 592.852C478.458 592.852 478.864 592.79 479.228 592.665C479.592 592.534 479.907 592.344 480.174 592.094C480.441 591.844 480.643 591.534 480.779 591.165L483.66 591.489C483.478 592.25 483.131 592.915 482.62 593.483C482.114 594.045 481.467 594.483 480.677 594.795C479.887 595.102 478.984 595.256 477.967 595.256ZM486.398 595V581.909H489.389V584.091H489.526C489.764 583.335 490.173 582.753 490.753 582.344C491.338 581.929 492.006 581.722 492.756 581.722C492.926 581.722 493.116 581.73 493.327 581.747C493.543 581.759 493.722 581.778 493.864 581.807V584.645C493.733 584.599 493.526 584.56 493.241 584.526C492.963 584.486 492.693 584.466 492.432 584.466C491.869 584.466 491.364 584.588 490.915 584.832C490.472 585.071 490.122 585.403 489.866 585.83C489.611 586.256 489.483 586.747 489.483 587.304V595H486.398ZM508.005 581.909L503.343 595H499.934L495.272 581.909H498.562L501.57 591.634H501.707L504.724 581.909H508.005ZM515.49 595.256C514.178 595.256 513.044 594.983 512.089 594.438C511.141 593.886 510.411 593.108 509.899 592.102C509.388 591.091 509.132 589.901 509.132 588.531C509.132 587.185 509.388 586.003 509.899 584.986C510.416 583.963 511.138 583.168 512.064 582.599C512.99 582.026 514.078 581.739 515.328 581.739C516.135 581.739 516.896 581.869 517.612 582.131C518.334 582.386 518.97 582.784 519.521 583.324C520.078 583.864 520.516 584.551 520.834 585.386C521.152 586.216 521.311 587.205 521.311 588.352V589.298H510.581V587.219H518.354C518.348 586.628 518.22 586.102 517.97 585.642C517.72 585.176 517.371 584.81 516.922 584.543C516.479 584.276 515.962 584.142 515.371 584.142C514.74 584.142 514.186 584.295 513.709 584.602C513.232 584.903 512.859 585.301 512.592 585.795C512.331 586.284 512.197 586.821 512.192 587.406V589.222C512.192 589.983 512.331 590.636 512.609 591.182C512.888 591.722 513.277 592.136 513.777 592.426C514.277 592.71 514.862 592.852 515.533 592.852C515.982 592.852 516.388 592.79 516.751 592.665C517.115 592.534 517.43 592.344 517.697 592.094C517.964 591.844 518.166 591.534 518.303 591.165L521.183 591.489C521.001 592.25 520.655 592.915 520.143 593.483C519.638 594.045 518.99 594.483 518.2 594.795C517.411 595.102 516.507 595.256 515.49 595.256ZM523.921 595V581.909H526.913V584.091H527.049C527.288 583.335 527.697 582.753 528.276 582.344C528.862 581.929 529.529 581.722 530.279 581.722C530.45 581.722 530.64 581.73 530.85 581.747C531.066 581.759 531.245 581.778 531.387 581.807V584.645C531.256 584.599 531.049 584.56 530.765 584.526C530.487 584.486 530.217 584.466 529.955 584.466C529.393 584.466 528.887 584.588 528.438 584.832C527.995 585.071 527.646 585.403 527.39 585.83C527.134 586.256 527.006 586.747 527.006 587.304V595H523.921ZM540.786 586.46V589H532.928V586.46H540.786ZM553.653 582.344C553.573 581.599 553.238 581.02 552.647 580.605C552.062 580.19 551.3 579.983 550.363 579.983C549.704 579.983 549.138 580.082 548.667 580.281C548.195 580.48 547.835 580.75 547.585 581.091C547.335 581.432 547.207 581.821 547.201 582.259C547.201 582.622 547.283 582.937 547.448 583.205C547.619 583.472 547.849 583.699 548.138 583.886C548.428 584.068 548.749 584.222 549.102 584.347C549.454 584.472 549.809 584.577 550.167 584.662L551.803 585.071C552.462 585.224 553.096 585.432 553.704 585.693C554.317 585.955 554.866 586.284 555.349 586.682C555.837 587.08 556.224 587.56 556.508 588.122C556.792 588.685 556.934 589.344 556.934 590.099C556.934 591.122 556.673 592.023 556.15 592.801C555.627 593.574 554.871 594.179 553.883 594.616C552.9 595.048 551.71 595.264 550.312 595.264C548.954 595.264 547.775 595.054 546.775 594.634C545.781 594.213 545.002 593.599 544.44 592.793C543.883 591.986 543.582 591.003 543.536 589.844H546.647C546.692 590.452 546.88 590.957 547.21 591.361C547.539 591.764 547.968 592.065 548.496 592.264C549.031 592.463 549.627 592.562 550.286 592.562C550.974 592.562 551.576 592.46 552.093 592.256C552.616 592.045 553.025 591.756 553.32 591.386C553.616 591.011 553.766 590.574 553.772 590.074C553.766 589.619 553.633 589.244 553.371 588.949C553.11 588.648 552.744 588.398 552.272 588.199C551.806 587.994 551.261 587.812 550.636 587.653L548.65 587.142C547.212 586.773 546.076 586.213 545.241 585.463C544.411 584.707 543.996 583.705 543.996 582.455C543.996 581.426 544.275 580.526 544.832 579.753C545.394 578.98 546.158 578.381 547.124 577.955C548.09 577.523 549.184 577.307 550.406 577.307C551.644 577.307 552.729 577.523 553.661 577.955C554.599 578.381 555.335 578.974 555.869 579.736C556.403 580.491 556.678 581.361 556.695 582.344H553.653ZM559.616 595V581.909H562.702V595H559.616ZM561.168 580.051C560.679 580.051 560.259 579.889 559.906 579.565C559.554 579.236 559.378 578.841 559.378 578.381C559.378 577.915 559.554 577.52 559.906 577.196C560.259 576.866 560.679 576.702 561.168 576.702C561.662 576.702 562.082 576.866 562.429 577.196C562.781 577.52 562.957 577.915 562.957 578.381C562.957 578.841 562.781 579.236 562.429 579.565C562.082 579.889 561.662 580.051 561.168 580.051ZM570.732 595.23C569.704 595.23 568.783 594.966 567.971 594.438C567.158 593.909 566.516 593.142 566.045 592.136C565.573 591.131 565.337 589.909 565.337 588.472C565.337 587.017 565.576 585.79 566.053 584.79C566.536 583.784 567.187 583.026 568.005 582.514C568.823 581.997 569.735 581.739 570.741 581.739C571.508 581.739 572.138 581.869 572.633 582.131C573.127 582.386 573.519 582.696 573.809 583.06C574.099 583.418 574.323 583.756 574.482 584.074H574.61V577.545H577.704V595H574.67V592.938H574.482C574.323 593.256 574.093 593.594 573.792 593.952C573.491 594.304 573.093 594.605 572.599 594.855C572.104 595.105 571.482 595.23 570.732 595.23ZM571.593 592.699C572.246 592.699 572.803 592.523 573.263 592.17C573.724 591.812 574.073 591.315 574.312 590.679C574.55 590.043 574.67 589.301 574.67 588.455C574.67 587.608 574.55 586.872 574.312 586.247C574.079 585.622 573.732 585.136 573.272 584.79C572.817 584.443 572.258 584.27 571.593 584.27C570.906 584.27 570.332 584.449 569.871 584.807C569.411 585.165 569.065 585.659 568.832 586.29C568.599 586.92 568.482 587.642 568.482 588.455C568.482 589.273 568.599 590.003 568.832 590.645C569.07 591.281 569.42 591.784 569.88 592.153C570.346 592.517 570.917 592.699 571.593 592.699ZM586.787 595.256C585.474 595.256 584.341 594.983 583.386 594.438C582.438 593.886 581.707 593.108 581.196 592.102C580.685 591.091 580.429 589.901 580.429 588.531C580.429 587.185 580.685 586.003 581.196 584.986C581.713 583.963 582.435 583.168 583.361 582.599C584.287 582.026 585.375 581.739 586.625 581.739C587.432 581.739 588.193 581.869 588.909 582.131C589.631 582.386 590.267 582.784 590.818 583.324C591.375 583.864 591.813 584.551 592.131 585.386C592.449 586.216 592.608 587.205 592.608 588.352V589.298H581.878V587.219H589.651C589.645 586.628 589.517 586.102 589.267 585.642C589.017 585.176 588.668 584.81 588.219 584.543C587.776 584.276 587.259 584.142 586.668 584.142C586.037 584.142 585.483 584.295 585.006 584.602C584.528 584.903 584.156 585.301 583.889 585.795C583.628 586.284 583.494 586.821 583.489 587.406V589.222C583.489 589.983 583.628 590.636 583.906 591.182C584.185 591.722 584.574 592.136 585.074 592.426C585.574 592.71 586.159 592.852 586.83 592.852C587.278 592.852 587.685 592.79 588.048 592.665C588.412 592.534 588.727 592.344 588.994 592.094C589.261 591.844 589.463 591.534 589.599 591.165L592.48 591.489C592.298 592.25 591.952 592.915 591.44 593.483C590.935 594.045 590.287 594.483 589.497 594.795C588.707 595.102 587.804 595.256 586.787 595.256ZM601.308 595V577.545H607.853C609.194 577.545 610.319 577.778 611.228 578.244C612.143 578.71 612.833 579.364 613.299 580.205C613.771 581.04 614.006 582.014 614.006 583.128C614.006 584.247 613.768 585.219 613.29 586.043C612.819 586.861 612.123 587.494 611.202 587.943C610.282 588.386 609.151 588.608 607.81 588.608H603.148V585.983H607.384C608.168 585.983 608.81 585.875 609.31 585.659C609.81 585.437 610.18 585.116 610.418 584.696C610.663 584.27 610.785 583.747 610.785 583.128C610.785 582.509 610.663 581.98 610.418 581.543C610.174 581.099 609.802 580.764 609.302 580.537C608.802 580.304 608.157 580.188 607.367 580.188H604.469V595H601.308ZM610.325 587.091L614.646 595H611.117L606.873 587.091H610.325ZM622.388 595.256C621.076 595.256 619.942 594.983 618.988 594.438C618.039 593.886 617.309 593.108 616.798 592.102C616.286 591.091 616.031 589.901 616.031 588.531C616.031 587.185 616.286 586.003 616.798 584.986C617.315 583.963 618.036 583.168 618.962 582.599C619.888 582.026 620.977 581.739 622.227 581.739C623.033 581.739 623.795 581.869 624.511 582.131C625.232 582.386 625.869 582.784 626.42 583.324C626.977 583.864 627.414 584.551 627.732 585.386C628.05 586.216 628.21 587.205 628.21 588.352V589.298H617.479V587.219H625.252C625.246 586.628 625.119 586.102 624.869 585.642C624.619 585.176 624.269 584.81 623.82 584.543C623.377 584.276 622.86 584.142 622.269 584.142C621.638 584.142 621.085 584.295 620.607 584.602C620.13 584.903 619.758 585.301 619.491 585.795C619.229 586.284 619.096 586.821 619.09 587.406V589.222C619.09 589.983 619.229 590.636 619.508 591.182C619.786 591.722 620.175 592.136 620.675 592.426C621.175 592.71 621.761 592.852 622.431 592.852C622.88 592.852 623.286 592.79 623.65 592.665C624.013 592.534 624.329 592.344 624.596 592.094C624.863 591.844 625.065 591.534 625.201 591.165L628.082 591.489C627.9 592.25 627.553 592.915 627.042 593.483C626.536 594.045 625.888 594.483 625.099 594.795C624.309 595.102 623.406 595.256 622.388 595.256ZM633.905 587.33V595H630.82V581.909H633.768V584.134H633.922C634.223 583.401 634.703 582.818 635.362 582.386C636.027 581.955 636.848 581.739 637.825 581.739C638.729 581.739 639.516 581.932 640.186 582.318C640.862 582.705 641.385 583.264 641.754 583.997C642.129 584.73 642.314 585.619 642.308 586.665V595H639.223V587.142C639.223 586.267 638.996 585.582 638.541 585.088C638.092 584.594 637.47 584.347 636.675 584.347C636.135 584.347 635.655 584.466 635.234 584.705C634.82 584.937 634.493 585.276 634.254 585.719C634.021 586.162 633.905 586.699 633.905 587.33ZM650.303 595.23C649.274 595.23 648.354 594.966 647.541 594.438C646.729 593.909 646.087 593.142 645.615 592.136C645.143 591.131 644.908 589.909 644.908 588.472C644.908 587.017 645.146 585.79 645.624 584.79C646.107 583.784 646.757 583.026 647.575 582.514C648.393 581.997 649.305 581.739 650.311 581.739C651.078 581.739 651.709 581.869 652.203 582.131C652.697 582.386 653.089 582.696 653.379 583.06C653.669 583.418 653.893 583.756 654.053 584.074H654.18V577.545H657.274V595H654.24V592.938H654.053C653.893 593.256 653.663 593.594 653.362 593.952C653.061 594.304 652.663 594.605 652.169 594.855C651.675 595.105 651.053 595.23 650.303 595.23ZM651.163 592.699C651.817 592.699 652.374 592.523 652.834 592.17C653.294 591.812 653.643 591.315 653.882 590.679C654.121 590.043 654.24 589.301 654.24 588.455C654.24 587.608 654.121 586.872 653.882 586.247C653.649 585.622 653.303 585.136 652.842 584.79C652.388 584.443 651.828 584.27 651.163 584.27C650.476 584.27 649.902 584.449 649.442 584.807C648.982 585.165 648.635 585.659 648.402 586.29C648.169 586.92 648.053 587.642 648.053 588.455C648.053 589.273 648.169 590.003 648.402 590.645C648.641 591.281 648.99 591.784 649.45 592.153C649.916 592.517 650.487 592.699 651.163 592.699ZM666.357 595.256C665.045 595.256 663.911 594.983 662.957 594.438C662.008 593.886 661.278 593.108 660.766 592.102C660.255 591.091 659.999 589.901 659.999 588.531C659.999 587.185 660.255 586.003 660.766 584.986C661.283 583.963 662.005 583.168 662.931 582.599C663.857 582.026 664.945 581.739 666.195 581.739C667.002 581.739 667.763 581.869 668.479 582.131C669.201 582.386 669.837 582.784 670.388 583.324C670.945 583.864 671.383 584.551 671.701 585.386C672.019 586.216 672.178 587.205 672.178 588.352V589.298H661.448V587.219H669.221C669.215 586.628 669.087 586.102 668.837 585.642C668.587 585.176 668.238 584.81 667.789 584.543C667.346 584.276 666.829 584.142 666.238 584.142C665.607 584.142 665.053 584.295 664.576 584.602C664.099 584.903 663.727 585.301 663.46 585.795C663.198 586.284 663.065 586.821 663.059 587.406V589.222C663.059 589.983 663.198 590.636 663.477 591.182C663.755 591.722 664.144 592.136 664.644 592.426C665.144 592.71 665.729 592.852 666.4 592.852C666.849 592.852 667.255 592.79 667.619 592.665C667.982 592.534 668.298 592.344 668.565 592.094C668.832 591.844 669.033 591.534 669.17 591.165L672.05 591.489C671.869 592.25 671.522 592.915 671.011 593.483C670.505 594.045 669.857 594.483 669.067 594.795C668.278 595.102 667.374 595.256 666.357 595.256ZM674.788 595V581.909H677.78V584.091H677.916C678.155 583.335 678.564 582.753 679.143 582.344C679.729 581.929 680.396 581.722 681.146 581.722C681.317 581.722 681.507 581.73 681.717 581.747C681.933 581.759 682.112 581.778 682.254 581.807V584.645C682.124 584.599 681.916 584.56 681.632 584.526C681.354 584.486 681.084 584.466 680.822 584.466C680.26 584.466 679.754 584.588 679.305 584.832C678.862 585.071 678.513 585.403 678.257 585.83C678.001 586.256 677.874 586.747 677.874 587.304V595H674.788ZM684.304 595V581.909H687.389V595H684.304ZM685.855 580.051C685.366 580.051 684.946 579.889 684.594 579.565C684.241 579.236 684.065 578.841 684.065 578.381C684.065 577.915 684.241 577.52 684.594 577.196C684.946 576.866 685.366 576.702 685.855 576.702C686.349 576.702 686.77 576.866 687.116 577.196C687.469 577.52 687.645 577.915 687.645 578.381C687.645 578.841 687.469 579.236 687.116 579.565C686.77 579.889 686.349 580.051 685.855 580.051ZM693.647 587.33V595H690.562V581.909H693.511V584.134H693.664C693.965 583.401 694.445 582.818 695.104 582.386C695.769 581.955 696.59 581.739 697.567 581.739C698.471 581.739 699.258 581.932 699.928 582.318C700.604 582.705 701.127 583.264 701.496 583.997C701.871 584.73 702.056 585.619 702.05 586.665V595H698.965V587.142C698.965 586.267 698.738 585.582 698.283 585.088C697.835 584.594 697.212 584.347 696.417 584.347C695.877 584.347 695.397 584.466 694.977 584.705C694.562 584.937 694.235 585.276 693.996 585.719C693.763 586.162 693.647 586.699 693.647 587.33ZM710.88 600.182C709.772 600.182 708.82 600.031 708.025 599.73C707.229 599.435 706.59 599.037 706.107 598.537C705.624 598.037 705.289 597.483 705.102 596.875L707.88 596.202C708.005 596.457 708.187 596.71 708.425 596.96C708.664 597.216 708.985 597.426 709.388 597.591C709.798 597.761 710.312 597.847 710.931 597.847C711.806 597.847 712.531 597.634 713.104 597.207C713.678 596.787 713.965 596.094 713.965 595.128V592.648H713.812C713.653 592.966 713.42 593.293 713.113 593.628C712.812 593.963 712.411 594.244 711.911 594.472C711.417 594.699 710.795 594.812 710.045 594.812C709.039 594.812 708.127 594.577 707.309 594.105C706.496 593.628 705.849 592.918 705.366 591.974C704.888 591.026 704.65 589.838 704.65 588.412C704.65 586.974 704.888 585.761 705.366 584.773C705.849 583.778 706.499 583.026 707.317 582.514C708.136 581.997 709.048 581.739 710.053 581.739C710.82 581.739 711.451 581.869 711.945 582.131C712.445 582.386 712.843 582.696 713.138 583.06C713.434 583.418 713.658 583.756 713.812 584.074H713.982V581.909H717.025V595.213C717.025 596.332 716.758 597.259 716.224 597.991C715.69 598.724 714.96 599.273 714.033 599.636C713.107 600 712.056 600.182 710.88 600.182ZM710.906 592.392C711.559 592.392 712.116 592.233 712.576 591.915C713.036 591.597 713.386 591.139 713.624 590.543C713.863 589.946 713.982 589.23 713.982 588.395C713.982 587.571 713.863 586.849 713.624 586.23C713.391 585.611 713.045 585.131 712.585 584.79C712.13 584.443 711.57 584.27 710.906 584.27C710.218 584.27 709.644 584.449 709.184 584.807C708.724 585.165 708.377 585.656 708.144 586.281C707.911 586.901 707.795 587.605 707.795 588.395C707.795 589.196 707.911 589.898 708.144 590.5C708.383 591.097 708.732 591.562 709.192 591.898C709.658 592.227 710.229 592.392 710.906 592.392Z"
    fill="#5F85E7"
  />
</svg>
