<svg width="394" height="80" viewBox="0 0 394 80" fill="none" xmlns="http://www.w3.org/2000/svg">
  <path
    d="M26.4886 66.9887C21.0114 66.9887 16.2841 65.9091 12.3068 63.75C8.35227 61.5682 5.30682 58.4659 3.17045 54.4432C1.05682 50.3978 0 45.5909 0 40.0228C0 34.6137 1.06818 29.8864 3.20455 25.8409C5.34091 21.7728 8.35227 18.6137 12.2386 16.3637C16.125 14.0909 20.7045 12.9546 25.9773 12.9546C29.7045 12.9546 33.1136 13.5341 36.2045 14.6932C39.2955 15.8523 41.9659 17.5682 44.2159 19.8409C46.4659 22.1137 48.2159 24.9205 49.4659 28.2614C50.7159 31.5796 51.3409 35.3864 51.3409 39.6819V43.8409H5.82955V34.1591H35.8295C35.8068 32.3864 35.3864 30.8069 34.5682 29.4205C33.75 28.0341 32.625 26.9546 31.1932 26.1819C29.7841 25.3864 28.1591 24.9887 26.3182 24.9887C24.4545 24.9887 22.7841 25.4091 21.3068 26.25C19.8295 27.0682 18.6591 28.1932 17.7955 29.625C16.9318 31.0341 16.4773 32.6364 16.4318 34.4319V44.2841C16.4318 46.4205 16.8523 48.2955 17.6932 49.9091C18.5341 51.5 19.7273 52.7387 21.2727 53.625C22.8182 54.5114 24.6591 54.9546 26.7955 54.9546C28.2727 54.9546 29.6136 54.75 30.8182 54.3409C32.0227 53.9319 33.0568 53.3296 33.9205 52.5341C34.7841 51.7387 35.4318 50.7614 35.8636 49.6023L51.1705 50.0455C50.5341 53.4773 49.1364 56.4659 46.9773 59.0114C44.8409 61.5341 42.0341 63.5 38.5568 64.9091C35.0795 66.2955 31.0568 66.9887 26.4886 66.9887Z"
    fill="#4a6cf7"
  />
  <path
    d="M148.73 66V13.6364H164.923V23.1819H165.469C166.423 19.7273 167.98 17.1591 170.139 15.4773C172.298 13.7728 174.81 12.9205 177.673 12.9205C178.446 12.9205 179.241 12.9773 180.06 13.0909C180.878 13.1819 181.639 13.3296 182.344 13.5341V28.0228C181.548 27.75 180.503 27.5341 179.207 27.375C177.935 27.2159 176.798 27.1364 175.798 27.1364C173.821 27.1364 172.037 27.5796 170.446 28.4659C168.878 29.3296 167.639 30.5455 166.73 32.1137C165.844 33.6591 165.401 35.4773 165.401 37.5682V66H148.73Z"
    fill="#4a6cf7"
  />
  <path
    d="M210.861 66.9887C205.361 66.9887 200.634 65.8637 196.679 63.6137C192.747 61.3409 189.713 58.1819 187.577 54.1364C185.463 50.0682 184.406 45.3523 184.406 39.9887C184.406 34.6023 185.463 29.8864 187.577 25.8409C189.713 21.7728 192.747 18.6137 196.679 16.3637C200.634 14.0909 205.361 12.9546 210.861 12.9546C216.361 12.9546 221.077 14.0909 225.009 16.3637C228.963 18.6137 231.997 21.7728 234.111 25.8409C236.247 29.8864 237.315 34.6023 237.315 39.9887C237.315 45.3523 236.247 50.0682 234.111 54.1364C231.997 58.1819 228.963 61.3409 225.009 63.6137C221.077 65.8637 216.361 66.9887 210.861 66.9887ZM210.963 54.4091C212.963 54.4091 214.656 53.7955 216.043 52.5682C217.429 51.3409 218.486 49.6364 219.213 47.4546C219.963 45.2728 220.338 42.75 220.338 39.8864C220.338 36.9773 219.963 34.4319 219.213 32.25C218.486 30.0682 217.429 28.3637 216.043 27.1364C214.656 25.9091 212.963 25.2955 210.963 25.2955C208.895 25.2955 207.145 25.9091 205.713 27.1364C204.304 28.3637 203.224 30.0682 202.474 32.25C201.747 34.4319 201.384 36.9773 201.384 39.8864C201.384 42.75 201.747 45.2728 202.474 47.4546C203.224 49.6364 204.304 51.3409 205.713 52.5682C207.145 53.7955 208.895 54.4091 210.963 54.4091Z"
    fill="#4a6cf7"
  />
  <path
    d="M279.639 43.3978V13.6364H296.276V66H280.389V56.25H279.844C278.685 59.4546 276.707 62 273.912 63.8864C271.139 65.75 267.787 66.6819 263.855 66.6819C260.287 66.6819 257.151 65.8637 254.446 64.2273C251.741 62.5909 249.639 60.3069 248.139 57.375C246.639 54.4205 245.878 50.9659 245.855 47.0114V13.6364H262.526V43.7387C262.548 46.5796 263.298 48.8182 264.776 50.4546C266.253 52.0909 268.264 52.9091 270.81 52.9091C272.469 52.9091 273.957 52.5455 275.276 51.8182C276.616 51.0682 277.673 49.9887 278.446 48.5796C279.241 47.1478 279.639 45.4205 279.639 43.3978Z"
    fill="#4a6cf7"
  />
  <path
    d="M336.443 13.6364V25.9091H303.409V13.6364H336.443ZM310.33 1.09094H327V49.5341C327 50.5569 327.159 51.3864 327.477 52.0228C327.818 52.6364 328.307 53.0796 328.943 53.3523C329.58 53.6023 330.341 53.7273 331.227 53.7273C331.864 53.7273 332.534 53.6705 333.239 53.5569C333.966 53.4205 334.511 53.3069 334.875 53.2159L337.398 65.25C336.602 65.4773 335.477 65.7614 334.023 66.1023C332.591 66.4432 330.875 66.6591 328.875 66.75C324.966 66.9318 321.614 66.4773 318.818 65.3864C316.045 64.2728 313.92 62.5455 312.443 60.2046C310.989 57.8637 310.284 54.9205 310.33 51.375V1.09094Z"
    fill="#4a6cf7"
  />
  <path
    d="M368.864 66.9887C363.386 66.9887 358.659 65.9091 354.682 63.75C350.727 61.5682 347.682 58.4659 345.545 54.4432C343.432 50.3978 342.375 45.5909 342.375 40.0228C342.375 34.6137 343.443 29.8864 345.58 25.8409C347.716 21.7728 350.727 18.6137 354.614 16.3637C358.5 14.0909 363.08 12.9546 368.352 12.9546C372.08 12.9546 375.489 13.5341 378.58 14.6932C381.67 15.8523 384.341 17.5682 386.591 19.8409C388.841 22.1137 390.591 24.9205 391.841 28.2614C393.091 31.5796 393.716 35.3864 393.716 39.6819V43.8409H348.205V34.1591H378.205C378.182 32.3864 377.761 30.8069 376.943 29.4205C376.125 28.0341 375 26.9546 373.568 26.1819C372.159 25.3864 370.534 24.9887 368.693 24.9887C366.83 24.9887 365.159 25.4091 363.682 26.25C362.205 27.0682 361.034 28.1932 360.17 29.625C359.307 31.0341 358.852 32.6364 358.807 34.4319V44.2841C358.807 46.4205 359.227 48.2955 360.068 49.9091C360.909 51.5 362.102 52.7387 363.648 53.625C365.193 54.5114 367.034 54.9546 369.17 54.9546C370.648 54.9546 371.989 54.75 373.193 54.3409C374.398 53.9319 375.432 53.3296 376.295 52.5341C377.159 51.7387 377.807 50.7614 378.239 49.6023L393.545 50.0455C392.909 53.4773 391.511 56.4659 389.352 59.0114C387.216 61.5341 384.409 63.5 380.932 64.9091C377.455 66.2955 373.432 66.9887 368.864 66.9887Z"
    fill="#4a6cf7"
  />
  <circle cx="99.7273" cy="40" r="7.5" fill="#4a6cf7" />
  <circle cx="67.2273" cy="7.5" r="7.5" fill="#4a6cf7" />
  <circle cx="132.227" cy="7.5" r="7.5" fill="#4a6cf7" />
  <circle cx="67.2273" cy="72.5" r="5.5" stroke="#4a6cf7" stroke-width="4" />
  <circle cx="132.227" cy="72.5" r="5.5" stroke="#4a6cf7" stroke-width="4" />
  <rect x="65.3523" y="5.3125" width="3.75" height="60.9375" fill="#4a6cf7" />
  <rect
    x="64.7273"
    y="7.65161"
    width="3.75"
    height="47.7747"
    transform="rotate(-45 64.7273 7.65161)"
    fill="#4a6cf7"
  />
  <rect
    width="3.75"
    height="47.7747"
    transform="matrix(-0.707107 -0.707107 -0.707107 0.707107 134.717 7.65985)"
    fill="#4a6cf7"
  />
  <rect x="130.352" y="4.99994" width="3.75" height="61.25" fill="#4a6cf7" />
</svg>
